<svg id="Layer_1" data-name="Layer 1" xmlns="http://www.w3.org/2000/svg" viewBox="0 0 40 40"><defs><style>.cls-1,.cls-3,.cls-4,.cls-5,.cls-9{fill:#fff;}.cls-2{fill:#c0bfbf;opacity:0.5;}.cls-3,.cls-4,.cls-5,.cls-6,.cls-8,.cls-9{stroke:#231f20;}.cls-10,.cls-3,.cls-4,.cls-5,.cls-6,.cls-7,.cls-8,.cls-9{stroke-linejoin:round;}.cls-3,.cls-6,.cls-9{stroke-width:0.85px;}.cls-4{stroke-width:0.81px;}.cls-5{stroke-width:0.82px;}.cls-6,.cls-8{fill:#4c9ad4;}.cls-10,.cls-7{fill:none;}.cls-7{stroke:#fff;stroke-width:0.9px;}.cls-7,.cls-9{stroke-linecap:round;}.cls-8{stroke-width:0.81px;}.cls-10{stroke:#c0bfbf;stroke-width:0.92px;}</style></defs><title>vle Icons_FINAL-16</title><path class="cls-1" d="M34,3.63H6.45a6,6,0,0,0-5,2.79V6.29a5,5,0,0,1,5-5H34a5,5,0,0,1,5,5V6.41A6,6,0,0,0,34,3.63Z"/><path class="cls-2" d="M29.53,9L5.92,24.4,20.33,38.81h13.6a5,5,0,0,0,5-5V18.44Z"/><path class="cls-3" d="M6.18,23.87A6.87,6.87,0,0,1,13,17h0a6.87,6.87,0,0,1,6.85,6.85H6.18Z"/><rect class="cls-4" x="9.63" y="8.76" width="7.22" height="9.14" rx="3.47" ry="3.47"/><path class="cls-3" d="M20.45,23.87A6.87,6.87,0,0,1,27.3,17h0a6.87,6.87,0,0,1,6.85,6.85H20.45Z"/><rect class="cls-5" x="23.9" y="8.76" width="7.22" height="9.3" rx="3.51" ry="3.51"/><path class="cls-6" d="M10.66,26.91A9.37,9.37,0,0,1,20,17.57h0a9.37,9.37,0,0,1,9.35,9.35H10.66Z"/><path class="cls-7" d="M12.76,24.33a6.67,6.67,0,0,1,3.17-4"/><rect class="cls-8" x="15.36" y="6.3" width="9.85" height="12.51" rx="4.75" ry="4.75"/><path class="cls-7" d="M17.23,10.72A2.9,2.9,0,0,1,20,8.07"/><path class="cls-9" d="M23.16,28.07l-1.15,1s-0.89.67,0.12,2c0,0,2.65,4.79,6.18,3.95,2.91-.7,4.37-2.09,4.68-4.18a5.34,5.34,0,0,0-.12-2.08h0a10.44,10.44,0,0,0-.34-1.1l-1-2.58a1,1,0,0,0-1.32-.6h0a1.13,1.13,0,0,0-.66,1.46l0.52,1.4"/><path class="cls-9" d="M28,28.1l-1.13-3a1.13,1.13,0,0,1,.66-1.46h0a1.13,1.13,0,0,1,1.46.66l1.13,3"/><path class="cls-9" d="M25.87,28.88l-1.38-3.7a1.13,1.13,0,0,1,.66-1.46h0a1.13,1.13,0,0,1,1.46.66L28,28.09"/><path class="cls-9" d="M23.76,29.67l-2.37-6.36A1.13,1.13,0,0,1,22,21.85h0a1.13,1.13,0,0,1,1.46.66l2.37,6.36"/><rect class="cls-10" x="0.9" y="0.73" width="38.54" height="38.54" rx="5.5" ry="5.5"/></svg>