<?xml version="1.0" encoding="UTF-8"?>
<svg width="50px" height="50px" viewBox="0 0 50 50" version="1.1" xmlns="http://www.w3.org/2000/svg" xmlns:xlink="http://www.w3.org/1999/xlink">
    <!-- Generator: Sketch 44.1 (41455) - http://www.bohemiancoding.com/sketch -->
    <title>Live Tutorial</title>
    <desc>Created with Sketch.</desc>
    <defs></defs>
    <g id="Page-1" stroke="none" stroke-width="1" fill="none" fill-rule="evenodd">
        <g id="Live-Tutorial">
            <g id="Group" transform="translate(8.000000, 16.000000)">
                <path d="M31.0882353,1.54378428 L31.0882353,18 L21.1854266,18 L12.7263381,18 L2.82352941,18 L2.82352941,1.54378428 C2.82352941,0.691215142 3.51339273,0 4.36429448,0 L29.5474702,0 C30.398372,-5.00650253e-16 31.0882353,0.691215142 31.0882353,1.54378428 Z" id="Shape" stroke="#2F2F2F" fill="#E4E4E4" fill-rule="nonzero"></path>
                <path d="M28,4.31221664 L28,18.3 L20.2920907,18.3 L13.7079093,18.3 L6,18.3 L6,4.31221664 C6,3.58753287 6.53695917,3 7.19926355,3 L26.8007364,3 C27.4630408,3 28,3.58753287 28,4.31221664 Z" id="Shape" stroke="#2F2F2F" fill="#FFFFFF" fill-rule="nonzero"></path>
                <rect id="Rectangle-10" fill="#A1A19F" x="11.0294118" y="17.1" width="10.9411765" height="2.7"></rect>
                <path d="M34,17 L34,19.6218426 C34,20.6590724 33.251733,21.5 32.3287942,21.5 L1.67120583,21.5 C0.748266966,21.5 1.97729202e-15,20.6590724 1.97729202e-15,19.6218426 L-4.97379915e-14,17 L1.23185642,17 L12.4123836,17 C12.4123836,18.2909653 13.3444756,19.156375 14.4931913,19.156375 L19.5075715,19.156375 C20.6562872,19.156375 21.5876164,18.2909653 21.5876164,17 L32.7673808,17 L34,17 Z" id="Shape" fill="#2F2F2F" fill-rule="nonzero"></path>
            </g>
            <g id="Group-2" transform="translate(8.000000, 13.000000)">
                <path d="M17.624958,1 L3.37497478,1 C2.06870502,1 1,2.02688141 1,3.28188688 L1,11.2685556 C1,12.5236257 2.06877228,13.5504425 3.37497478,13.5504425 L11.0937437,13.5504425 L11.0937437,15.714196 C11.0937437,15.9683637 11.4135683,16.0955444 11.6004857,15.9158887 L14.0624958,13.5505071 L17.6250252,13.5505071 C18.931295,13.5505071 20,12.5236257 20,11.2686202 L20,3.28188688 C19.9999327,2.02688141 18.9312277,1 17.624958,1 Z" id="Shape-Copy" fill="#2F2F2F" fill-rule="nonzero"></path>
                <path d="M16.624958,0 L2.37497478,0 C1.06870502,0 0,1.02688141 0,2.28188688 L0,10.2685556 C0,11.5236257 1.06877228,12.5504425 2.37497478,12.5504425 L10.0937437,12.5504425 L10.0937437,14.714196 C10.0937437,14.9683637 10.4135683,15.0955444 10.6004857,14.9158887 L13.0624958,12.5505071 L16.6250252,12.5505071 C17.931295,12.5505071 19,11.5236257 19,10.2686202 L19,2.28188688 C18.9999327,1.02688141 17.9312277,0 16.624958,0 Z" id="Shape" fill="#F42684" fill-rule="nonzero"></path>
                <circle id="Oval-7" fill="#FFFFFF" cx="4.5" cy="6.5" r="1.5"></circle>
                <circle id="Oval-7-Copy" fill="#FFFFFF" cx="9.5" cy="6.5" r="1.5"></circle>
                <circle id="Oval-7-Copy-2" fill="#FFFFFF" cx="14.5" cy="6.5" r="1.5"></circle>
            </g>
        </g>
    </g>
</svg>