<svg id="Layer_1" data-name="Layer 1" xmlns="http://www.w3.org/2000/svg" viewBox="0 0 200 200"><defs><style>.cls-1{fill:none;stroke:#fff;}.cls-1,.cls-2,.cls-3,.cls-4{stroke-linejoin:round;}.cls-1,.cls-2,.cls-3{stroke-width:3.35px;}.cls-2,.cls-3,.cls-4{fill:#fff;}.cls-2,.cls-4{stroke:#fff;}.cls-3{stroke:#fff;}.cls-4{stroke-width:2.62px;}</style></defs><title>Notification-01</title><path class="cls-1" d="M42.8,130.56a19.52,19.52,0,0,0,30.74,8.5"/><path class="cls-2" d="M69.36,127.21a8.76,8.76,0,1,1-16.86-4.77Z"/><path class="cls-3" d="M61.13,124.79l34.42,9.53,1.13-4.09a6.17,6.17,0,0,0-.42-4.4l-3.17-6.35A21.72,21.72,0,0,1,91.59,104l4.22-15.23a19.51,19.51,0,0,0-13.59-24L78.07,63.6,75.84,63l-4.14-1.15a19.51,19.51,0,0,0-24,13.59L43.47,90.66a21.72,21.72,0,0,1-9.25,12.51l-6,3.81a6.17,6.17,0,0,0-2.63,3.55l-1.13,4.09,34.42,9.53Z"/><path class="cls-3" d="M69.36,61a8.7,8.7,0,1,1,16.77,4.64Z"/><polygon class="cls-4" points="165.52 85.97 144.75 106.75 123.97 85.97 165.52 85.97"/></svg>