<?xml version="1.0" encoding="UTF-8"?>
<svg width="50px" height="50px" viewBox="0 0 50 50" version="1.1" xmlns="http://www.w3.org/2000/svg" xmlns:xlink="http://www.w3.org/1999/xlink">
    <!-- Generator: Sketch 44.1 (41455) - http://www.bohemiancoding.com/sketch -->
    <title>Assignment activity</title>
    <desc>Created with Sketch.</desc>
    <defs></defs>
    <g id="Page-1" stroke="none" stroke-width="1" fill="none" fill-rule="evenodd">
        <g id="Assignment-activity">
            <g id="Group" transform="translate(14.000000, 10.000000)">
                <path d="M1.87128941,1 C0.87196144,1 -3.55271368e-15,1.96006208 -3.55271368e-15,2.99480902 L0.0543294638,29.1186419 C0.0543294638,30.1533889 0.87196144,31 1.87128941,31 L20.1830401,31 C21.182368,31 22,30.1533889 22,29.1186419 L22,9.01155923 L13.865918,1.02574106 L1.87128941,1 Z" id="Shape" stroke="#2F2F2F" fill="#FFFFFF" fill-rule="nonzero"></path>
                <polygon id="Shape" fill="#A1A19F" fill-rule="nonzero" points="21.4821999 13.9771729 15.1517578 8 21.4821999 8"></polygon>
                <path d="M15.6832386,9.00358073 L22.232381,9.00358073 L13.9904116,0.946831597 L13.9904116,6.5922309 C13.9904116,7.62740947 14.6763271,9.00358073 15.6832386,9.00358073 Z" id="Shape" fill="#2F2F2F" fill-rule="nonzero"></path>
                <path d="M3,15 L20,15" id="Line" stroke="#828282"></path>
                <path d="M3,20 L18,20" id="Line-Copy" stroke="#828282"></path>
                <path d="M3,25 L14,25" id="Line-Copy-3" stroke="#828282"></path>
                <path d="M4,25 L19,25 L4,25 Z M4.7181955,5.786019 L6.27210739,7.47557791 L10.4590785,4 L11.7085382,5.27206754 L6.23744204,10.7431637 L3,7.5042145 L4.7181955,5.786019 Z" id="Line-Copy-2" fill="#F42684"></path>
                <g id="Group-2" transform="translate(12.000000, 4.000000)" fill-rule="nonzero">
                    <path d="M15.6312894,1.4718439 C14.0230658,1.4718439 12.7194233,2.6846023 12.7194233,4.18055662 L12.7194233,4.8577348 L18.3245027,4.88167208 L18.3245027,4.2044939 C18.3245027,2.70853958 17.2395131,1.4718439 15.6312894,1.4718439 Z" id="XMLID_958_" fill="#E4E4E4" transform="translate(15.521963, 3.176758) rotate(32.000000) translate(-15.521963, -3.176758) "></path>
                    <polygon id="XMLID_959_" fill="#2F2F2F" transform="translate(10.234202, 14.250370) rotate(32.000000) translate(-10.234202, -14.250370) " points="8.7167605 5.44448822 11.6286267 5.44448822 11.7516438 22.9896488 8.97407301 23.0562523"></polygon>
                    <polygon id="XMLID_960_" fill="#000000" transform="translate(8.077244, 12.523097) rotate(32.000000) translate(-8.077244, -12.523097) " points="6.62358569 3.38119149 9.62358569 3.38119149 9.62358569 21.6650023 6.53090185 21.6006421"></polygon>
                    <polygon id="XMLID_961_" fill="#A1A19F" transform="translate(14.082201, 5.464258) rotate(32.000000) translate(-14.082201, -5.464258) " points="11.2652156 6.491233 13.9873205 6.46881672 16.8991867 6.46881672 16.8991867 4.43728218 11.2866284 4.44653377"></polygon>
                    <polygon id="XMLID_962_" fill="#E4E4E4" transform="translate(3.683317, 22.113216) rotate(32.000000) translate(-3.683317, -22.113216) " points="0.753725751 20.7249149 2.69472472 23.539992 4.99469546 23.4498264 6.61290908 20.6864401 3.84806971 20.6946362"></polygon>
                    <polygon id="XMLID_963_" fill="#F42684" transform="translate(2.609319, 24.145515) rotate(32.000000) translate(-2.609319, -24.145515) " points="2.71243156 25.1126398 3.74561306 23.1783895 1.47302446 23.2966429"></polygon>
                </g>
            </g>
        </g>
    </g>
</svg>