<svg id="Layer_1" data-name="Layer 1" xmlns="http://www.w3.org/2000/svg" viewBox="0 0 40 40"><defs><style>.cls-1{fill:#fff;}.cls-2{fill:#c0bfbf;opacity:0.5;}.cls-3{fill:#4c9ad4;stroke:#231f20;stroke-width:0.88px;}.cls-3,.cls-4,.cls-5{stroke-linecap:round;}.cls-3,.cls-4,.cls-5,.cls-6{stroke-linejoin:round;}.cls-4,.cls-5,.cls-6{fill:none;}.cls-4,.cls-5{stroke:#fff;}.cls-4{stroke-width:0.94px;}.cls-5{stroke-width:1.16px;}.cls-6{stroke:#c0bfbf;stroke-width:0.92px;}</style></defs><title>vle Icons_FINAL</title><path class="cls-1" d="M34,3.63H6.45a6,6,0,0,0-5,2.79V6.29a5,5,0,0,1,5-5H34a5,5,0,0,1,5,5V6.41A6,6,0,0,0,34,3.63Z"/><path class="cls-2" d="M28.38,9.31L9.31,28.39,20.46,39.54h14a5.3,5.3,0,0,0,5.3-5.3V20.64Z"/><circle class="cls-3" cx="20.18" cy="20.11" r="13.2"/><line class="cls-4" x1="15.18" y1="27.17" x2="25.3" y2="27.17"/><line class="cls-5" x1="20.14" y1="12.08" x2="20.14" y2="22.72"/><polyline class="cls-5" points="24.95 19.07 20.16 23.85 15.38 19.07"/><rect class="cls-6" x="0.9" y="0.73" width="38.54" height="38.54" rx="5.5" ry="5.5"/></svg>