<?xml version="1.0" encoding="UTF-8"?>
<svg width="50px" height="50px" viewBox="0 0 50 50" version="1.1" xmlns="http://www.w3.org/2000/svg" xmlns:xlink="http://www.w3.org/1999/xlink">
    <!-- Generator: Sketch 44.1 (41455) - http://www.bohemiancoding.com/sketch -->
    <title>Google Drive</title>
    <desc>Created with Sketch.</desc>
    <defs></defs>
    <g id="Page-1" stroke="none" stroke-width="1" fill="none" fill-rule="evenodd">
        <g id="Google-Drive" fill-rule="nonzero">
            <g id="Group" transform="translate(12.000000, 12.000000)">
                <path d="M8.42415234,15.4815156 L8.20680859,19.8414018 L5.11630674,22.2152621 L5.11630674,22.2152621 C4.6783165,22.551689 4.05052745,22.4693555 3.71410064,22.0313653 C3.68491527,21.9933692 3.65849828,21.9533247 3.63505382,21.9115414 L0,15.4330513 L8.22444588,0.95169509 L8.22444588,0.95169509 C8.49718956,0.471456259 9.10760248,0.303248198 9.58784131,0.57599187 C9.61397491,0.590834013 9.63942612,0.606846747 9.66411743,0.623981307 L12.8686797,2.84779018 L13.0039609,7.46396205 L12.9652148,7.4865 L8.42415234,15.4815156 Z" id="Shape" stroke="#2F2F2F" fill="#E4E4E4"></path>
                <polygon id="Shape" fill="#828282" points="8.76494531 1 11.0223389 9.96777344 12.449707 7.47485352 12.8686797 2.19028649"></polygon>
                <path d="M17.2343945,0 L25.4839669,14.5245043 L25.4839669,14.5245043 C25.7567261,15.0047343 25.5885378,15.6151526 25.1083078,15.8879118 C25.0955901,15.8951352 25.0827154,15.9020787 25.0696931,15.9087372 L21.2731289,17.8500022 L17.5298906,15.4562567 L13.0039609,7.46396205 L9.61334598,1.49384454 L9.61334598,1.49384454 C9.34060317,1.01360522 9.50881232,0.4031926 9.98905164,0.13044979 C10.1395985,0.0449495824 10.3097644,9.1998222e-16 10.4828962,8.8817842e-16 L17.2343945,0 Z" id="Shape" stroke="#2F2F2F" fill="#FFFFFF"></path>
                <path d="M25.1555384,16.9292703 L21.8023711,22.8704196 L5.92366051,22.9141389 L5.92366051,22.9141389 C5.37137785,22.9156595 4.9224316,22.4691786 4.92091098,21.916896 C4.92043173,21.7428325 4.96539533,21.5716585 5.05135551,21.4203007 L8.42415234,15.4815156 L17.5298906,15.4562567 L24.2819301,15.4377583 L24.2819301,15.4377583 C24.8342127,15.4362452 25.2831529,15.8827322 25.284666,16.4350149 C25.2851403,16.6081676 25.240646,16.7784764 25.1555384,16.9292703 Z" id="Shape" stroke="#2F2F2F" fill="#A1A19F"></path>
                <polygon id="Shape" fill="#595959" points="5.08947754 22.381958 11.9263916 15.9680176 8.7454834 15.9680176"></polygon>
                <polygon id="Shape" fill="#C7C5C5" points="25.15979 14.9820102 16.7650146 13.0419922 17.7595215 14.9820102"></polygon>
            </g>
        </g>
    </g>
</svg>