<?xml version="1.0" encoding="UTF-8"?>
<svg width="50px" height="50px" viewBox="0 0 50 50" version="1.1" xmlns="http://www.w3.org/2000/svg" xmlns:xlink="http://www.w3.org/1999/xlink">
    <!-- Generator: Sketch 44.1 (41455) - http://www.bohemiancoding.com/sketch -->
    <title>Interactive Media</title>
    <desc>Created with Sketch.</desc>
    <defs>
        <rect id="path-1" x="0" y="0" width="31" height="24" rx="1.8"></rect>
    </defs>
    <g id="Page-1" stroke="none" stroke-width="1" fill="none" fill-rule="evenodd">
        <g id="Interactive-Media">
            <g id="Group-3" transform="translate(10.000000, 13.000000)">
                <g id="Rectangle-2">
                    <use fill="#FFFFFF" fill-rule="evenodd" xlink:href="#path-1"></use>
                    <rect stroke="#2F2F2F" stroke-width="1" x="0.5" y="0.5" width="30" height="23" rx="1.8"></rect>
                </g>
                <g id="Group-2" transform="translate(8.000000, 4.000000)">
                    <circle id="Oval-2" fill="#2F2F2F" cx="8" cy="8" r="8"></circle>
                    <circle id="Oval-2" fill="#F42684" cx="7.5" cy="7.5" r="7.5"></circle>
                    <polygon id="Triangle" fill="#FFFFFF" points="12 7.5 5 12 5 3"></polygon>
                </g>
            </g>
            <g id="Group-2" transform="translate(33.705610, 32.341868) rotate(-32.000000) translate(-33.705610, -32.341868) translate(26.705610, 23.341868)" fill-rule="nonzero">
                <path d="M11.6711592,5.94439102 C11.4262259,5.94439102 11.1977006,6.00016831 11.0013205,6.09554354 L11.0013205,5.98957106 C11.0013205,5.3949477 10.4309618,4.91292555 9.72748156,4.91292555 C9.40076623,4.91292555 9.10371946,5.01776417 8.87823841,5.18871566 L8.87823841,5.06673828 C8.87823841,4.47211492 8.3079313,3.99004916 7.60439947,3.99004916 C7.19791441,3.99004916 6.83673195,4.15153727 6.60351128,4.40212075 L6.60351128,1.34967723 C6.60351128,0.755053867 5.71133064,0.414243334 5.00779881,0.414243334 C4.30426698,0.414243334 3.69367356,1.04466289 3.69367356,1.63932986 L3.69367356,8.99874791 C3.2521538,8.34573066 2.91294892,7.38967249 2.09022688,7.10202044 C1.869338,7.024787 1.63580775,6.96351484 1.39670496,6.96408177 C1.15765377,6.96464871 0.910862954,7.03363984 0.750033565,7.18309157 C0.522540213,7.39455682 0.511549947,7.72141432 0.61608647,7.99323591 C0.720622993,8.2650575 0.740096456,8.67377693 0.904331279,8.92361904 C1.29022894,9.51074147 1.47463838,10.3140826 1.71296721,10.9548019 C1.95129603,11.5955211 2.26387365,12.2424329 2.83954689,12.7054411 C3.10326168,12.9175168 3.41372381,13.0837148 3.6876549,13.2862836 C4.10265355,13.5932113 4.43050403,13.9837832 4.63606844,14.4162643 L10.3554231,14.2439551 L11.3892821,14.2439551 C12.4748933,13.4665619 12.7929403,11.597783 12.9870501,9.55277577 L12.9870501,7.02108014 C12.9869469,6.42645678 12.3978583,5.94439102 11.6711592,5.94439102 Z" id="Shape-Copy" fill="#2F2F2F"></path>
                <path d="M12.0068636,5.67140291 C11.7619303,5.67140291 11.533405,5.7271802 11.3370249,5.82255543 L11.3370249,5.71658295 C11.3370249,5.12195959 10.7666662,4.63993744 10.063186,4.63993744 C9.73647065,4.63993744 9.43942388,4.74477606 9.21394283,4.91572755 L9.21394283,4.79375017 C9.21394283,4.19912681 8.64363573,3.71706105 7.94010389,3.71706105 C7.53361884,3.71706105 7.17243638,3.87854916 6.9392157,4.12913264 L6.9392157,1.07668912 C6.9392157,0.482065759 6.3689086,2.13162821e-14 5.66537677,2.13162821e-14 C4.96184494,2.13162821e-14 4.39153784,0.482022149 4.39153784,1.07668912 L4.39153784,8.43610717 C3.95001808,7.78308992 3.24865334,7.11668438 2.4259313,6.82903233 C2.20504243,6.75179889 1.97151217,6.69052674 1.73240938,6.69109367 C1.49335819,6.6916606 1.24656738,6.76065173 1.08573799,6.91010346 C0.858244636,7.12156871 0.84725437,7.44842621 0.951790893,7.7202478 C1.05632742,7.9920694 1.25714486,8.22847961 1.42137969,8.47832172 C1.80727735,9.06544415 1.99168679,9.86878532 2.23001561,10.5095045 C2.46834444,11.1502237 2.78092206,11.7971356 3.3565953,12.2601437 C3.62031009,12.4722195 3.93077221,12.6384175 4.20470331,12.8409863 C4.61970196,13.147914 4.94755243,13.5384858 5.15311685,13.9709669 L10.6911275,13.9709669 L11.7249865,13.9709669 C12.8105978,13.1935738 13.1286447,11.3247949 13.3227545,9.27978766 L13.3227545,6.74809203 C13.3226513,6.15346867 12.7335627,5.67140291 12.0068636,5.67140291 Z" id="Shape" fill="#E4E4E4"></path>
                <rect id="Rectangle-path" fill="#F42684" x="3.80088938" y="13.6781299" width="8.86346913" height="3.85185979"></rect>
                <ellipse id="Oval" fill="#1E1E1E" cx="11.1408909" cy="15.6028169" rx="1" ry="1"></ellipse>
            </g>
        </g>
    </g>
</svg>