<?xml version="1.0" encoding="UTF-8"?>
<svg width="50px" height="50px" viewBox="0 0 50 50" version="1.1" xmlns="http://www.w3.org/2000/svg" xmlns:xlink="http://www.w3.org/1999/xlink">
    <!-- Generator: Sketch 44.1 (41455) - http://www.bohemiancoding.com/sketch -->
    <title>Presentation</title>
    <desc>Created with Sketch.</desc>
    <defs></defs>
    <g id="Page-1" stroke="none" stroke-width="1" fill="none" fill-rule="evenodd">
        <g id="Presentation">
            <g id="Group-2" transform="translate(11.000000, 14.000000)">
                <g id="Group">
                    <rect id="Rectangle-path" stroke="#2F2F2F" fill="#FFFFFF" fill-rule="nonzero" x="0.911764706" y="0.892857143" width="27" height="18" rx="1"></rect>
                    <path d="M1.40527344,15.0726318 L5.99573864,7.11458333 L17.9621212,8.75378788 L23.7604167,13.4616477 L27.413208,6.09423828 L27.5977303,17.468555 L27.5977303,17.468555 C27.6066887,18.0207671 27.1662946,18.4756856 26.6140825,18.484644 C26.610833,18.4846967 26.6075833,18.4847336 26.6043334,18.4847546 L2.29173505,18.6420979 L2.29173505,18.6420979 C1.73946186,18.645672 1.28885858,18.2008636 1.28528445,17.6485904 C1.28516887,17.6307315 1.28553174,17.6128727 1.28637265,17.5950332 L1.40527344,15.0726318 Z" id="Path-3" fill="#D8D8D8"></path>
                </g>
                <polyline id="Path-2" stroke="#2F2F2F" points="6.00170898 14.1186523 12.7943892 7.07208807 17.362571 14.8224432 22.8444602 7.04971591"></polyline>
                <circle id="Oval" fill="#F42684" fill-rule="nonzero" cx="6" cy="14" r="2"></circle>
                <circle id="Oval" fill="#F42684" fill-rule="nonzero" cx="13" cy="7" r="2"></circle>
                <circle id="Oval" fill="#F42684" fill-rule="nonzero" cx="18" cy="14" r="2"></circle>
                <circle id="Oval" fill="#F42684" fill-rule="nonzero" cx="23" cy="6" r="2"></circle>
                <path d="M14.5,19.5 L14.5,23.5" id="Line" stroke="#2F2F2F" stroke-linecap="square"></path>
                <path d="M8.5,24.5 L20.5,24.5" id="Line" stroke="#2F2F2F" stroke-linecap="square"></path>
            </g>
        </g>
    </g>
</svg>