<?xml version="1.0" encoding="UTF-8"?>
<svg width="50px" height="50px" viewBox="0 0 50 50" version="1.1" xmlns="http://www.w3.org/2000/svg" xmlns:xlink="http://www.w3.org/1999/xlink">
    <!-- Generator: Sketch 44.1 (41455) - http://www.bohemiancoding.com/sketch -->
    <title>Toolkit</title>
    <desc>Created with Sketch.</desc>
    <defs></defs>
    <g id="Page-1" stroke="none" stroke-width="1" fill="none" fill-rule="evenodd">
        <g id="Toolkit">
            <g id="Group-4" transform="translate(11.000000, 9.000000)">
                <g id="Group-3" fill-rule="nonzero">
                    <g id="noun_894567_cc" transform="translate(20.512104, 10.533475) rotate(-27.000000) translate(-20.512104, -10.533475) translate(14.012104, 4.033475)" fill="#000000">
                        <g id="Group" transform="translate(6.144670, 6.862773) rotate(1.000000) translate(-6.144670, -6.862773) translate(0.144670, 0.862773)">
                            <path d="M9.62402115,0.234998089 C8.38169699,-0.197464999 6.94395178,0.0680105063 5.9497357,1.04293701 C4.95548604,2.01785035 4.68478663,3.42770383 5.12579639,4.64589134 L0.933050645,8.49446581 C0.340861042,9.07512605 0.340861042,10.0100688 0.933033849,10.590729 C1.52518984,11.1713892 2.47862566,11.1713892 3.07079845,10.590729 L7.26356082,6.74215453 C8.50586818,7.17461926 9.94363019,6.90914211 10.9378295,5.93421561 C11.9320791,4.95930063 12.2027953,3.54944715 11.7617688,2.33125964 L10.3440275,3.72149591 C9.75187148,4.30216109 8.79841904,4.30216439 8.20626389,3.72149755 C7.6141079,3.14083237 7.6140911,2.20588966 8.20624709,1.62522612 L9.62402115,0.234998089 Z" id="Shape"></path>
                        </g>
                    </g>
                    <g id="Group-2" transform="translate(14.050202, 14.646511) rotate(-212.000000) translate(-14.050202, -14.646511) translate(5.550202, 3.146511)">
                        <path d="M13.9611697,1.12584406 C12.613739,1.12584406 11.521498,2.14193893 11.521498,3.39530606 L11.521498,3.96267157 L16.4008413,3.96267157 L16.4008413,3.39530606 C16.4008413,2.14193893 15.3086003,1.12584406 13.9611697,1.12584406 Z" id="XMLID_958_" fill="#F5F4F4" transform="translate(13.961170, 2.544258) rotate(32.000000) translate(-13.961170, -2.544258) "></path>
                        <rect id="XMLID_959_" fill="#A6A6A6" transform="translate(8.243593, 13.996221) rotate(32.000000) translate(-8.243593, -13.996221) " x="7.02375703" y="8.29851207" width="2.43967166" height="11.3954181"></rect>
                        <polygon id="XMLID_960_" fill="#828282" transform="translate(5.793142, 13.469296) rotate(32.000000) translate(-5.793142, -13.469296) " points="4.65564958 8.62327104 7.09532124 8.62327104 6.93063389 18.3153217 4.49096223 18.3153217"></polygon>
                        <polygon id="XMLID_961_" fill="#565659" transform="translate(12.758538, 4.468871) rotate(32.000000) translate(-12.758538, -4.468871) " points="10.3188664 5.319919 12.758538 5.319919 15.1982097 5.319919 15.1982097 3.61782249 10.3188664 3.61782249"></polygon>
                        <polygon id="XMLID_962_" fill="#F6F4F4" transform="translate(3.589058, 19.143106) rotate(32.000000) translate(-3.589058, -19.143106) " points="1.14938643 18.0094815 2.36800242 20.2767308 4.81011375 20.2767308 6.02872975 18.0094815 3.58905809 18.0094815"></polygon>
                        <polygon id="XMLID_963_" fill="#F42684" transform="translate(2.386426, 21.067719) rotate(32.000000) translate(-2.386426, -21.067719) " points="2.38642645 22.2035564 3.60748211 19.9318817 1.16537078 19.9318817"></polygon>
                    </g>
                    <path d="M8.50001618,30 C7.67153237,30 7,29.3510496 7,28.5503034 L7,18 L21,18 L21,28.5503034 C21.0000566,29.3510496 20.3285243,30 19.5000405,30 L8.50001618,30 Z" id="Shape" stroke="#2F2F2F" fill="#FFFFFF"></path>
                    <path d="M8.31204812,6.39240488 L4.52150303,7.40957274 L4.26737741,6.4606723 C3.98680006,5.41256989 4.60830474,4.33497952 5.65464879,4.05456567 C6.70149297,3.77365108 7.77778971,4.39540203 8.05786693,5.44350443 L8.31204812,6.39240488 Z" id="Shape" fill="#E4E4E4"></path>
                    <path d="M6.92688844,15.2833044 L10.6914264,15.2833044 L8.31221484,6.39257179 L4.52116961,7.40923891 L6.63647504,15.3127367 C6.73016754,15.293653 6.82730543,15.2833044 6.92688844,15.2833044" id="Shape" fill="#4A4A4A"></path>
                    <path d="M20.6625088,18.2302091 L6.92688844,18.2302091 C6.11405323,18.2302091 5.45520491,17.5706246 5.45520491,16.7567568 C5.45520491,15.9429446 6.11399766,15.2833044 6.92688844,15.2833044 L20.6624533,15.2833044 C21.4752885,15.2833044 22.1341368,15.9428889 22.1341368,16.7567568 C22.1341368,17.5705689 21.475344,18.2302091 20.6625088,18.2302091" id="Shape" stroke="#2F2F2F" fill="#FFFFFF"></path>
                </g>
                <rect id="Rectangle" fill="#D8D8D8" x="7.45703125" y="21" width="13.0497582" height="5"></rect>
                <path d="M7.5,25.5 L20.5,25.5" id="Line" stroke="#979797"></path>
            </g>
        </g>
    </g>
</svg>