<?xml version="1.0" encoding="UTF-8"?>
<svg width="62px" height="62px" viewBox="0 0 62 62" version="1.1" xmlns="http://www.w3.org/2000/svg" xmlns:xlink="http://www.w3.org/1999/xlink">
    <!-- Generator: Sketch 44.1 (41455) - http://www.bohemiancoding.com/sketch -->
    <title>E-learning</title>
    <desc>Created with Sketch.</desc>
    <defs></defs>
    <g id="Page-1" stroke="none" stroke-width="1" fill="none" fill-rule="evenodd">
        <g id="E-learning">
            <g id="Group-3" transform="translate(11.000000, 16.000000)">
                <g id="Group" transform="translate(0.000000, 1.000000)" fill-rule="nonzero">
                    <path d="M14.3514713,21.3309385 L24.5830345,21.3309385 C24.5830345,22.598123 23.5444828,23.6255016 22.2635172,23.6255016 L16.6718391,23.6255016 C15.3908736,23.6255016 14.3514713,22.598123 14.3514713,21.3309385 Z" id="Shape" fill="#2F2F2F"></path>
                    <path d="M38.4244368,21.3309385 L38.4244368,24.0823948 C38.4244368,25.1005178 37.590023,25.9259547 36.5608276,25.9259547 L2.37367816,25.9259547 C1.34448276,25.9259547 0.510068966,25.1005178 0.510068966,24.0823948 L0.510068966,21.3309385 L1.88374713,21.3309385 L14.3514713,21.3309385 C14.3514713,22.598123 15.3908736,23.6255016 16.6718391,23.6255016 L22.2635172,23.6255016 C23.5444828,23.6255016 24.5830345,22.598123 24.5830345,21.3309385 L37.049908,21.3309385 L38.4244368,21.3309385 Z" id="Shape" fill="#A1A19F"></path>
                    <path d="M36.5608276,1.85365696 L36.5608276,21.3309385 L24.5830345,21.3309385 L14.3514713,21.3309385 L2.37367816,21.3309385 L2.37367816,1.85365696 C2.37367816,0.835533981 3.20809195,0.0100970874 4.23728736,0.0100970874 L34.6972184,0.0100970874 C35.7264138,0.0100970874 36.5608276,0.835533981 36.5608276,1.85365696 Z M33.7743448,18.3354693 L33.7743448,2.89618123 L23.9629655,2.89618123 L5.16101149,2.89618123 L5.16101149,18.3354693 L18.8476092,18.3354693 L33.7743448,18.3354693 Z" id="Shape" fill="#D2D2D1"></path>
                </g>
                <g id="idea" transform="translate(14.000000, 5.000000)" fill-rule="nonzero">
                    <path d="M5.52963962,2.03384208 C3.61334843,2.03384208 2.06006182,3.65278037 2.06006182,5.64956132 C2.06006182,7.25155093 3.06081816,8.60789761 4.44539655,9.08268675 L4.44539655,11.2991226 L4.87909378,11.2991226 L4.87909378,11.97707 L6.18018545,11.97707 L6.18018545,11.2991226 L6.61388268,11.2991226 L6.61388268,9.08268675 C7.99846107,8.60789761 8.99921742,7.25155093 8.99921742,5.64956132 C8.99921742,3.65278037 7.4459308,2.03384208 5.52963962,2.03384208 Z" id="Shape" fill="#F42684"></path>
                    <g id="Group" fill="#F42684">
                        <path d="M5.52963962,0 C5.40972233,0 5.312791,0.101014156 5.312791,0.225982453 L5.312791,1.12991226 C5.312791,1.25488056 5.40972233,1.35589472 5.52963962,1.35589472 C5.6495569,1.35589472 5.74648823,1.25488056 5.74648823,1.12991226 L5.74648823,0.225982453 C5.74648823,0.101014156 5.6495569,0 5.52963962,0 Z" id="Shape"></path>
                        <path d="M10.7340063,5.42357887 L9.86661187,5.42357887 C9.74669458,5.42357887 9.64976325,5.52459303 9.64976325,5.64956132 C9.64976325,5.77452962 9.74669458,5.87554378 9.86661187,5.87554378 L10.7340063,5.87554378 C10.8539236,5.87554378 10.9508549,5.77452962 10.9508549,5.64956132 C10.9508549,5.52459303 10.8539236,5.42357887 10.7340063,5.42357887 Z" id="Shape"></path>
                        <path d="M1.19266737,5.42357887 L0.325272919,5.42357887 C0.205355636,5.42357887 0.108424306,5.52459303 0.108424306,5.64956132 C0.108424306,5.77452962 0.205355636,5.87554378 0.325272919,5.87554378 L1.19266737,5.87554378 C1.31258465,5.87554378 1.40951598,5.77452962 1.40951598,5.64956132 C1.40951598,5.52459303 1.31258465,5.42357887 1.19266737,5.42357887 Z" id="Shape"></path>
                        <path d="M9.05646545,1.65464352 L8.44321757,2.2937219 C8.35842977,2.38208104 8.35842977,2.52490195 8.44321757,2.61326109 C8.48550305,2.65732766 8.5410163,2.67947394 8.59652954,2.67947394 C8.65204279,2.67947394 8.70755603,2.65732766 8.74984151,2.61326109 L9.36308939,1.97418271 C9.44787719,1.88582357 9.44787719,1.74300266 9.36308939,1.65464352 C9.27830158,1.56628438 9.14103641,1.56651036 9.05646545,1.65464352 Z" id="Shape"></path>
                        <path d="M2.30943772,8.68586156 L1.69618985,9.32493994 C1.61140204,9.41329908 1.61140204,9.55611999 1.69618985,9.64447912 C1.73847533,9.6885457 1.79398857,9.71069198 1.84950182,9.71069198 C1.90501506,9.71069198 1.9605283,9.6885457 2.00281378,9.64447912 L2.61606166,9.00540075 C2.70084947,8.91704161 2.70084947,8.7742207 2.61606166,8.68586156 C2.53127385,8.59750242 2.39422553,8.59750242 2.30943772,8.68586156 Z" id="Shape"></path>
                        <path d="M8.74984151,8.68586156 C8.6650537,8.59750242 8.52800538,8.59750242 8.44321757,8.68586156 C8.35842977,8.7742207 8.35842977,8.91704161 8.44321757,9.00540075 L9.05646545,9.64447912 C9.09875093,9.6885457 9.15426417,9.71069198 9.20977742,9.71069198 C9.26529066,9.71069198 9.32080391,9.6885457 9.36308939,9.64447912 C9.44787719,9.55611999 9.44787719,9.41329908 9.36308939,9.32493994 L8.74984151,8.68586156 Z" id="Shape"></path>
                        <path d="M2.00281378,1.65464352 C1.91802598,1.56628438 1.78097765,1.56628438 1.69618985,1.65464352 C1.61140204,1.74300266 1.61140204,1.88582357 1.69618985,1.97418271 L2.30943772,2.61326109 C2.3517232,2.65732766 2.40723645,2.67947394 2.46274969,2.67947394 C2.51826294,2.67947394 2.57377618,2.65732766 2.61606166,2.61326109 C2.70084947,2.52490195 2.70084947,2.38208104 2.61606166,2.2937219 L2.00281378,1.65464352 Z" id="Shape"></path>
                    </g>
                    <path d="M3.14430488,5.87554378 C3.0243876,5.87554378 2.92745627,5.77452962 2.92745627,5.64956132 C2.92745627,4.15423543 4.09475235,2.93777189 5.52963962,2.93777189 C5.6495569,2.93777189 5.74648823,3.03878604 5.74648823,3.16375434 C5.74648823,3.28872264 5.6495569,3.38973679 5.52963962,3.38973679 C4.33393637,3.38973679 3.36115349,4.40349408 3.36115349,5.64956132 C3.36115349,5.77452962 3.26422216,5.87554378 3.14430488,5.87554378 Z" id="Shape" fill="#FFFFFF"></path>
                    <polygon id="Shape" fill="#000000" points="4.44539655 9.71724547 4.44539655 11.2991226 4.87909378 11.2991226 4.87909378 11.97707 6.18018545 11.97707 6.18018545 11.2991226 6.61388268 11.2991226 6.61388268 9.71724547"></polygon>
                </g>
                <path d="M15.3187256,0.956542969 L24.0283203,22.3208008 L2.38867187,22.3208008 L2.25500018,2.97035852 L2.25500018,2.97035852 C2.24737007,1.86581537 3.13659377,0.964220804 4.24113692,0.956590687 C4.24574203,0.956558875 4.25034724,0.956542969 4.25495247,0.956542969 L15.3187256,0.956542969 Z" id="Path-2" fill-opacity="0.25" fill="#FFFFFF"></path>
                <g id="Group-2" transform="translate(32.090023, 20.185888) rotate(-32.000000) translate(-32.090023, -20.185888) translate(24.590023, 10.185888)" fill-rule="nonzero">
                    <path d="M12.6958054,6.69292107 C12.4293687,6.69292107 12.1807804,6.75572194 11.9671596,6.86310702 L11.9671596,6.74379027 C11.9671596,6.0742907 11.3467274,5.53157132 10.5814865,5.53157132 C10.2260878,5.53157132 9.90296243,5.64961144 9.65768572,5.84208949 L9.65768572,5.70475247 C9.65768572,5.0352529 9.03730964,4.49248443 8.27201263,4.49248443 C7.82984102,4.49248443 7.43694926,4.67430745 7.18325345,4.95644493 L7.18325345,1.51963138 C7.18325345,0.850131815 6.56287736,0.307363337 5.79758035,0.307363337 C5.03228334,0.307363337 4.41190726,0.850082714 4.41190726,1.51963138 L4.41190726,9.80576261 C3.93162515,9.07051608 3.16868549,8.32019537 2.2737342,7.99632158 C2.03345282,7.90936274 1.77942024,7.84037507 1.5193259,7.84101339 C1.25928768,7.84165171 0.990830359,7.91933036 0.815881273,8.08760135 C0.568415594,8.32569474 0.556460459,8.69371082 0.670174559,8.99976075 C0.783888658,9.30581068 1.00233647,9.57199016 1.18098997,9.85329291 C1.60076675,10.514347 1.80136605,11.4188466 2.06061848,12.1402465 C2.31987091,12.8616464 2.65989066,13.5900187 3.28610399,14.1113298 C3.5729711,14.3501106 3.91068963,14.5372366 4.20866996,14.7653133 C4.66010259,15.1108899 5.01673605,15.5506434 5.24034759,16.0375834 L11.2645569,16.0375834 L12.3891815,16.0375834 C13.5701018,15.1622993 13.9160711,13.0581999 14.1272223,10.7556811 L14.1272223,7.90518911 C14.1271101,7.23568954 13.4863036,6.69292107 12.6958054,6.69292107 Z" id="Shape-Copy" fill="#828282"></path>
                    <path d="M13.0609823,6.38555773 C12.7945456,6.38555773 12.5459574,6.4483586 12.3323365,6.55574368 L12.3323365,6.43642693 C12.3323365,5.76692736 11.7119043,5.22420799 10.9466634,5.22420799 C10.5912648,5.22420799 10.2681394,5.3422481 10.0228626,5.53472616 L10.0228626,5.39738913 C10.0228626,4.72788957 9.40248657,4.18512109 8.63718955,4.18512109 C8.19501795,4.18512109 7.80212619,4.36694411 7.54843037,4.64908159 L7.54843037,1.21226805 C7.54843037,0.542768479 6.92805429,2.13162821e-14 6.16275728,2.13162821e-14 C5.39746026,2.13162821e-14 4.77708418,0.542719377 4.77708418,1.21226805 L4.77708418,9.49839928 C4.29680208,8.76315274 3.53386241,8.01283203 2.63891112,7.68895824 C2.39862975,7.60199941 2.14459717,7.53301173 1.88450282,7.53365005 C1.62446461,7.53428837 1.35600729,7.61196702 1.1810582,7.78023801 C0.93359252,8.01833141 0.921637386,8.38634749 1.03535149,8.69239742 C1.14906558,8.99844735 1.3675134,9.26462682 1.54616689,9.54592957 C1.96594367,10.2069837 2.16654298,11.1114832 2.42579541,11.8328831 C2.68504784,12.554283 3.02506759,13.2826554 3.65128092,13.8039665 C3.93814803,14.0427473 4.27586656,14.2298733 4.57384689,14.4579499 C5.02527952,14.8035266 5.38191298,15.24328 5.60552451,15.7302201 L11.6297338,15.7302201 L12.7543584,15.7302201 C13.9352788,14.8549359 14.281248,12.7508365 14.4923993,10.4483178 L14.4923993,7.59782577 C14.492287,6.92832621 13.8514806,6.38555773 13.0609823,6.38555773 Z" id="Shape" fill="#E4E4E4"></path>
                    <rect id="Rectangle-path" fill="#F42684" x="4.13458092" y="15.4005084" width="9.64161981" height="4.33689397"></rect>
                    <ellipse id="Oval" fill="#1E1E1E" cx="12.1189833" cy="17.567556" rx="1" ry="1"></ellipse>
                </g>
            </g>
        </g>
    </g>
</svg>