<?xml version="1.0" encoding="UTF-8"?>
<svg width="50px" height="50px" viewBox="0 0 50 50" version="1.1" xmlns="http://www.w3.org/2000/svg" xmlns:xlink="http://www.w3.org/1999/xlink">
    <!-- Generator: Sketch 44.1 (41455) - http://www.bohemiancoding.com/sketch -->
    <title>Quiz</title>
    <desc>Created with Sketch.</desc>
    <defs></defs>
    <g id="Page-1" stroke="none" stroke-width="1" fill="none" fill-rule="evenodd">
        <g id="Quiz">
            <g id="Group" transform="translate(13.000000, 9.000000)">
                <path d="M1.87128941,1 C0.87196144,1 -3.55271368e-15,1.96006208 -3.55271368e-15,2.99480902 L0.0543294638,29.1186419 C0.0543294638,30.1533889 0.87196144,31 1.87128941,31 L20.1830401,31 C21.182368,31 22,30.1533889 22,29.1186419 L22,9.01155923 L13.865918,1.02574106 L1.87128941,1 Z" id="Shape" stroke="#2F2F2F" fill="#FFFFFF" fill-rule="nonzero"></path>
                <polygon id="Shape-Copy-2" fill="#F42684" fill-rule="nonzero" points="4.38274751 20.440057 3 21.8254283 5.6053874 24.4369748 10.0083466 20.0256609 9.00282228 19 5.63328494 21.8023388"></polygon>
                <polygon id="Shape-Copy-3" fill="#F42684" fill-rule="nonzero" points="4.38274751 11.440057 3 12.8254283 5.6053874 15.4369748 10.0083466 11.0256609 9.00282228 10 5.63328494 12.8023388"></polygon>
                <path d="M11.2813636,20 L19,20" id="Line-Copy-2" stroke="#828282"></path>
                <path d="M11.2813636,23 L19,23" id="Line-Copy-3" stroke="#828282"></path>
                <path d="M11.2813636,11 L19,11" id="Line" stroke="#828282"></path>
                <path d="M11.2813636,14 L19,14" id="Line-Copy" stroke="#828282"></path>
                <polygon id="Shape" fill="#A1A19F" fill-rule="nonzero" points="21.4821999 13.9771729 15.1517578 8 21.4821999 8"></polygon>
                <path d="M15.6832386,9.00358073 L22.6009659,9.00358073 L13.9904116,0.946831597 L13.9904116,6.5922309 C13.9904116,7.62740947 14.6763271,9.00358073 15.6832386,9.00358073 Z" id="Shape" fill="#2F2F2F" fill-rule="nonzero"></path>
                <path d="M27.6312894,5.4718439 C26.0230658,5.4718439 24.7194233,6.6846023 24.7194233,8.18055662 L24.7194233,8.8577348 L30.3245027,8.88167208 L30.3245027,8.2044939 C30.3245027,6.70853958 29.2395131,5.4718439 27.6312894,5.4718439 Z" id="XMLID_958_" fill="#E4E4E4" fill-rule="nonzero" transform="translate(27.521963, 7.176758) rotate(32.000000) translate(-27.521963, -7.176758) "></path>
                <polygon id="XMLID_959_" fill="#2F2F2F" fill-rule="nonzero" transform="translate(22.234202, 18.250370) rotate(32.000000) translate(-22.234202, -18.250370) " points="20.7167605 9.44448822 23.6286267 9.44448822 23.7516438 26.9896488 20.974073 27.0562523"></polygon>
                <polygon id="XMLID_960_" fill="#000000" fill-rule="nonzero" transform="translate(20.077244, 16.523097) rotate(32.000000) translate(-20.077244, -16.523097) " points="18.6235857 7.38119149 21.6235857 7.38119149 21.6235857 25.6650023 18.5309018 25.6006421"></polygon>
                <polygon id="XMLID_961_" fill="#A1A19F" fill-rule="nonzero" transform="translate(26.082201, 9.464258) rotate(32.000000) translate(-26.082201, -9.464258) " points="23.2652156 10.491233 25.9873205 10.4688167 28.8991867 10.4688167 28.8991867 8.43728218 23.2866284 8.44653377"></polygon>
                <polygon id="XMLID_962_" fill="#E4E4E4" fill-rule="nonzero" transform="translate(15.683317, 26.113216) rotate(32.000000) translate(-15.683317, -26.113216) " points="12.7537258 24.7249149 14.6947247 27.539992 16.9946955 27.4498264 18.6129091 24.6864401 15.8480697 24.6946362"></polygon>
                <polygon id="XMLID_963_" fill="#F42684" fill-rule="nonzero" transform="translate(14.609319, 28.145515) rotate(32.000000) translate(-14.609319, -28.145515) " points="14.7124316 29.1126398 15.7456131 27.1783895 13.4730245 27.2966429"></polygon>
            </g>
        </g>
    </g>
</svg>