<?xml version="1.0" encoding="utf-8"?>
<!-- Generator: Adobe Illustrator 20.1.0, SVG Export Plug-In . SVG Version: 6.00 Build 0)  -->
<svg version="1.1" id="Layer_1" xmlns="http://www.w3.org/2000/svg" xmlns:xlink="http://www.w3.org/1999/xlink" x="0px" y="0px"
	 viewBox="0 0 40 40" style="enable-background:new 0 0 40 40;" xml:space="preserve">
<style type="text/css">
	.st0{fill:#FFFFFF;}
	.st1{opacity:0.5;fill:#C0BFBF;enable-background:new    ;}
	.st2{fill:#4C9AD4;stroke:#231F20;stroke-width:0.9;stroke-linejoin:round;}
	.st3{fill:none;stroke:#C0BFBF;stroke-width:0.92;stroke-linejoin:round;}
	.st4{fill:#4C9AD4;}
	.st5{fill:#FFFFFF;stroke:#231F20;stroke-width:0.9;stroke-linejoin:round;}
</style>
<title>vle Icons_FINAL</title>
<path class="st0" d="M34,3.6H6.4c-2,0-3.9,1.1-5,2.8V6.3c0-2.8,2.2-5,5-5H34c2.8,0,5,2.2,5,5v0.1C37.9,4.7,36,3.7,34,3.6z"/>
<path class="st1" d="M32.5,14.9l-13,1.8L9.9,29.3l10,10l13.7-0.5c3.6,0,5.4-2.3,5.5-5.3v-12L32.5,14.9z"/>
<path class="st2" d="M6.9,12.1v8.8c0,1.8,1.4,3.3,3.2,3.3l0,0v4.7l5.5-4.7h9.9c1.8,0,3.3-1.5,3.3-3.3v-8.8c0-1.8-1.5-3.3-3.3-3.3
	H10.2C8.4,8.8,6.9,10.3,6.9,12.1z"/>
<path class="st2" d="M-66.8,12.1v8.8c0,1.8,1.4,3.3,3.2,3.3l0,0v4.7l5.5-4.7h9.9c1.8,0,3.3-1.5,3.3-3.3v-8.8c0-1.8-1.5-3.3-3.3-3.3
	h-15.3C-65.3,8.8-66.8,10.3-66.8,12.1z"/>
<path class="st3" d="M6.4,0.7h27.5c3,0,5.5,2.5,5.5,5.5v27.5c0,3-2.5,5.5-5.5,5.5H6.4c-3,0-5.5-2.5-5.5-5.5V6.2
	C0.9,3.2,3.4,0.7,6.4,0.7z"/>
<rect x="-50" y="-11.8" class="st4" width="5.1" height="5.1"/>
<path class="st5" d="M30.5,14.7H17.9c-1.5,0-2.7,1.2-2.7,2.7v7.2c0,1.5,1.2,2.7,2.7,2.7h8.2l4.5,3.9v-3.9l0,0c1.5,0,2.7-1.2,2.7-2.7
	v-7.2C33.2,15.9,32,14.7,30.5,14.7z"/>
<g>
	<circle class="st4" cx="28.9" cy="20.9" r="1.4"/>
	<circle class="st4" cx="24.4" cy="20.9" r="1.4"/>
	<circle class="st4" cx="19.9" cy="20.9" r="1.4"/>
</g>
</svg>
