<?xml version="1.0" encoding="UTF-8"?>
<svg width="50px" height="50px" viewBox="0 0 50 50" version="1.1" xmlns="http://www.w3.org/2000/svg" xmlns:xlink="http://www.w3.org/1999/xlink">
    <!-- Generator: Sketch 44.1 (41455) - http://www.bohemiancoding.com/sketch -->
    <title>Glossary</title>
    <desc>Created with Sketch.</desc>
    <defs></defs>
    <g id="Page-1" stroke="none" stroke-width="1" fill="none" fill-rule="evenodd">
        <g id="Glossary">
            <g id="Group-12" transform="translate(9.000000, 14.000000)">
                <g id="agenda" transform="translate(0.563786, 10.479336)" fill-rule="nonzero">
                    <path d="M0.421255492,0 C0.226972459,0 0.0658001079,0.14536162 0.0446530822,0.330743163 L0.0421255492,0.413428954 C0.0421255492,0.595337694 0.193777526,0.744172117 0.379129943,0.744172117 L0.463381041,0.744172117 L0.716134336,0.744172117 L0.884636533,0.744172117 L1.05313873,0.413428954 L2.06415191,0.413428954 L1.89893551,0.73763994 C1.89741899,0.740699314 1.89969377,0.744172117 1.90306381,0.744172117 L1.92084079,0.744172117 L3.66492278,0.744172117 L3.66492278,0 L0.421255492,0 Z" id="Shape" fill="#EAD8BB"></path>
                    <path d="M1.89564971,0.744172117 L1.89564971,2.91062252 C1.89564971,2.95237885 1.83962273,2.96767572 1.81771745,2.93179008 L1.39014312,2.23251635 L0.962568799,2.93187277 C0.940663514,2.96767572 0.884636533,2.95246153 0.884636533,2.91070521 L0.884636533,0.744172117 L0.379129943,0.744172117 C0.193777526,0.744172117 0.0421255492,0.595337694 0.0421255492,0.413428954 L0.0421255492,4.4615599 C0.0421255492,4.64611459 0.194620037,4.79577587 0.382668489,4.79577587 L3.66492278,4.79577587 L3.66492278,0.744172117 L1.89564971,0.744172117 Z" id="Shape" fill="#6B4842"></path>
                    <path d="M0.479059347,0.744172117 L0.391672588,0.744172117 C0.199421716,0.744172117 0.0421255492,0.595337694 0.0421255492,0.413428954 L0.0421255492,4.4615599 C0.0421255492,4.64611459 0.200295584,4.79577587 0.395342831,4.79577587 L0.479059347,4.79577587 L0.479059347,0.744172117 Z" id="Shape" fill="#513531"></path>
                    <path d="M3.66492278,0.165371582 L2.90666289,0.165371582 C2.86007204,0.165371582 2.8224118,0.225675634 2.8224118,0.300279977 C2.8224118,0.37488432 2.86007204,0.435188373 2.90666289,0.435188373 L3.66492278,0.435188373 L3.66492278,0.165371582 Z" id="Shape" fill="#D3BEA1"></path>
                    <path d="M3.66492278,0.413428954 L2.99091399,0.413428954 C2.94432314,0.413428954 2.90666289,0.473733007 2.90666289,0.54833735 C2.90666289,0.622941692 2.94432314,0.683245745 2.99091399,0.683245745 L3.66492278,0.683245745 L3.66492278,0.413428954 Z" id="Shape" fill="#D3BEA1"></path>
                    <path d="M1.05313873,0.413428954 L0.884636533,0.744172117 L0.884636533,2.91062252 C0.884636533,2.95237885 0.940747765,2.96767572 0.962568799,2.93179008 L1.39014312,2.23251635 L1.81771745,2.93187277 C1.83962273,2.96767572 1.89564971,2.95246153 1.89564971,2.91070521 L1.89564971,0.744172117 L2.06415191,0.413428954 L1.05313873,0.413428954 Z" id="Shape" fill="#DD352E"></path>
                    <polygon id="Shape" fill="#B02721" points="1.05313873 0.413428954 0.884636533 0.843137177 1.89564971 0.843137177 2.06415191 0.413428954"></polygon>
                </g>
                <path d="M30.132668,22.1538462 L1.01370158,22.1538462 C0.439270686,22.1538462 0,21.6805673 0,21.0616641 L0,2.01525894 C0,1.3963558 0.439270686,0.923076923 1.01370158,0.923076923 C4.44080361,0.923076923 6.87120802,0.923076923 8.30491481,0.923076923 C11.3613165,0.923076923 13.6312241,2.01525894 15.5571429,2.01525894 C17.3357855,2.01525894 19.8327334,0.923076923 22.605481,0.923076923 C24.0642973,0.923076923 26.5620963,0.923076923 30.098878,0.923076923 C30.6733089,0.923076923 31.1125796,1.3963558 31.1125796,2.01525894 L31.1125796,21.0616641 C31.1463696,21.6441612 30.6733089,22.1538462 30.132668,22.1538462 Z" id="Shape" stroke="#1E1E1E" fill="#828282" fill-rule="nonzero"></path>
                <polygon id="Shape" fill="#C7C7C7" fill-rule="nonzero" points="29.4697356 4.04454403 29.4697356 20.2840333 1.90277622 20.2840333 1.90277622 4.04454403 4.36290829 0.207923334 4.36290829 4.04454403 27.0096035 4.04454403 26.9653618 0.207923334"></polygon>
                <path d="M26.9596547,0.207923334 L26.9596547,17.4727165 L17.3887299,17.4727165 C16.478818,17.4727165 15.7037079,18.2003514 15.636307,19.093358 C15.5689062,18.2003514 14.8274965,17.4727165 13.8838842,17.4727165 L4.31295942,17.4727165 L4.31295942,0.207923334 L13.8838842,0.207923334 C14.8611969,0.207923334 15.636307,0.968632609 15.636307,1.92778778 C15.636307,0.968632609 16.4114172,0.207923334 17.3887299,0.207923334 C17.3887299,0.207923334 25.6436261,0.207923334 26.9596547,0.207923334 Z" id="Shape" fill="#F4F4F4" fill-rule="nonzero"></path>
                <path d="M15.636307,1.86163915 C15.636307,1.89471347 15.636307,1.89471347 15.636307,1.92778778 C15.636307,0.968632609 14.8611969,0.207923334 13.8838842,0.207923334 L4.31295942,0.207923334 L4.31295942,17.4727165 L13.8838842,17.4727165 C14.7937961,17.4727165 15.5689062,18.2003514 15.636307,19.093358 L15.636307,19.093358 L15.636307,19.093358 L15.636307,1.86163915 Z" id="Shape" fill="#FFFFFF" fill-rule="nonzero"></path>
                <polygon id="Shape" fill="#F4F4F4" fill-rule="nonzero" points="4.36290829 17.4727165 1.90277622 20.2840333 1.90277622 4.04454403 4.36290829 0.207923334"></polygon>
                <path d="M6.6,3.23076923 L14.1428571,3.23076923" id="Line-Copy-3" stroke="#828282"></path>
                <path d="M17.9142857,3.23076923 L25.4571429,3.23076923" id="Line-Copy-7" stroke="#1E1E1E"></path>
                <path d="M6.6,6 L14.1428571,6" id="Line-Copy-4" stroke="#828282"></path>
                <path d="M17.9142857,6 L25.4571429,6" id="Line-Copy-10" stroke="#1E1E1E"></path>
                <path d="M6.6,8.76923077 L14.1428571,8.76923077" id="Line-Copy-5" stroke="#828282"></path>
                <path d="M17.9142857,8.76923077 L25.4571429,8.76923077" id="Line-Copy-11" stroke="#1E1E1E"></path>
                <path d="M6.6,11.5384615 L14.1428571,11.5384615" id="Line-Copy-8" stroke="#828282"></path>
                <path d="M17.9142857,11.5384615 L25.4571429,11.5384615" id="Line-Copy-12" stroke="#1E1E1E"></path>
                <path d="M6.6,14.3076923 L14.1428571,14.3076923" id="Line-Copy-9" stroke="#828282"></path>
                <path d="M17.9142857,14.3076923 L25.4571429,14.3076923" id="Line-Copy-13" stroke="#1E1E1E"></path>
                <ellipse id="Oval-3" fill-opacity="0.774343297" fill="#FFFFFF" cx="23.7439024" cy="13.9257294" rx="4.42682927" ry="4.37665782"></ellipse>
                <g id="search" transform="translate(18.512195, 8.753316)" fill-rule="nonzero">
                    <polygon id="Shape" fill="#000000" points="10.6882434 9.56200186 9.66963492 10.5690358 8.3131431 9.20222356 9.2638267 8.2193147"></polygon>
                    <path d="M14.0305171,13.87346 L14.0305171,13.87346 C13.425725,14.4713977 12.4389509,14.4713977 11.8341588,13.87346 L8.8420327,10.9152451 L11.038391,8.74377926 L14.0305171,11.7019941 C14.6353092,12.2999318 14.6353092,13.2755223 14.0305171,13.87346 Z" id="Shape" fill="#F42684"></path>
                    <path d="M8.90531165,1.50197041 C10.9170982,3.51817918 10.9170982,6.78775836 8.8777504,8.77671825 C6.83840262,10.7656781 3.53139564,10.7656781 1.51960911,8.74946937 C-0.519712298,6.73323452 -0.492177424,3.51817918 1.54717036,1.50197041 C3.58651814,-0.514238358 6.86599024,-0.48701555 8.90531165,1.50197041 Z M8.07855331,7.98655278 C9.67694749,6.43352288 9.67694749,3.87238859 8.10611456,2.31933261 C6.53525526,0.739053827 3.94476162,0.739053827 2.34636745,2.29208373 C0.747973269,3.84511363 0.72041202,6.406274 2.3188062,7.9593039 C3.8896655,9.53958268 6.48015913,9.53958268 8.07855331,7.98655278 Z" id="Combined-Shape" fill="#2F2F2F"></path>
                    <polygon id="Shape" fill="#C51B69" points="11.038391 8.74374914 8.81019833 10.8837414 9.73330366 11.7963848 11.9296619 9.62491889"></polygon>
                </g>
            </g>
        </g>
    </g>
</svg>