<?xml version="1.0" encoding="UTF-8"?>
<svg width="50px" height="50px" viewBox="0 0 50 50" version="1.1" xmlns="http://www.w3.org/2000/svg" xmlns:xlink="http://www.w3.org/1999/xlink">
    <!-- Generator: Sketch 44.1 (41455) - http://www.bohemiancoding.com/sketch -->
    <title>Group Self Selection</title>
    <desc>Created with Sketch.</desc>
    <defs></defs>
    <g id="Page-1" stroke="none" stroke-width="1" fill="none" fill-rule="evenodd">
        <g id="Group-Self-Selection" fill-rule="nonzero">
            <g id="Group" transform="translate(14.000000, 10.000000)">
                <g id="Group-2" stroke="#2F2F2F" stroke-width="0.9" fill="#E4E4E4">
                    <ellipse id="Oval" cx="8.18092224" cy="5.50038632" rx="5.06827049" ry="4.94101132"></ellipse>
                    <path d="M10.7900549,11.9180413 L6.4895454,11.9180413 C2.91120283,11.9180413 1.64834311e-16,14.7571686 1.64834311e-16,18.2441298 L1.64834311e-16,23.3721343 L0,25.5830357 C0,25.5830357 3.03842721,25.5830357 9.11528163,25.5830357 L17.2408192,25.5830357 L17.2408192,23.3721343 L17.2764559,18.2441298 C17.2780281,14.7561468 14.3673494,11.9180413 10.7900549,11.9180413 Z" id="Shape"></path>
                </g>
                <g id="Group-2-Copy" transform="translate(5.419355, 0.000000)" stroke="#2F2F2F" stroke-width="0.9" fill="#FFFFFF">
                    <ellipse id="Oval" cx="8.18092224" cy="5.50038632" rx="5.06827049" ry="4.94101132"></ellipse>
                    <path d="M10.7900549,11.9180413 L6.4895454,11.9180413 C2.91120283,11.9180413 1.64834311e-16,14.7571686 1.64834311e-16,18.2441298 L1.64834311e-16,23.3721343 L0,25.5830357 C0,25.5830357 3.03842721,25.5830357 9.11528163,25.5830357 L17.2408192,25.5830357 L17.2408192,23.3721343 L17.2764559,18.2441298 C17.2780281,14.7561468 14.3673494,11.9180413 10.7900549,11.9180413 Z" id="Shape"></path>
                </g>
                <g id="Group-2" transform="translate(17.798616, 21.341136) rotate(-32.000000) translate(-17.798616, -21.341136) translate(11.476035, 13.112565)">
                    <path d="M10.5416921,5.43487179 C10.3204621,5.43487179 10.1140521,5.48586817 9.93667658,5.57306838 L9.93667658,5.47617925 C9.93667658,4.93252361 9.42151388,4.49181765 8.78611238,4.49181765 C8.49101466,4.49181765 8.22271435,4.5876701 8.01905404,4.7439686 L8.01905404,4.63244643 C8.01905404,4.08879079 7.50393795,3.64804495 6.86848985,3.64804495 C6.50134205,3.64804495 6.17511273,3.79569122 5.9644618,4.02479612 L5.9644618,1.23399061 C5.9644618,0.690334964 5.15862122,0.378736763 4.52317312,0.378736763 C3.88772501,0.378736763 3.33622128,0.955120355 3.33622128,1.49881587 L3.33622128,8.22742666 C2.93742924,7.63038232 2.63105064,6.75627199 1.88794686,6.49327583 C1.68843433,6.4226624 1.47750377,6.36664214 1.26153996,6.36716048 C1.04562276,6.36767882 0.822714926,6.43075643 0.677449671,6.567398 C0.471971806,6.76073766 0.462045114,7.05957881 0.556465199,7.30810141 C0.650885284,7.556624 0.668474218,7.93031033 0.816815349,8.15873741 C1.16536807,8.69553506 1.33193144,9.43001842 1.54719619,10.0158188 C1.76246093,10.6016193 2.0447891,11.1930815 2.56475203,11.6164033 C2.80294604,11.8103011 3.08336344,11.9622536 3.33078507,12.1474593 C3.70562256,12.4280789 4.00174557,12.7851732 4.18741666,13.1805845 L9.35328535,13.0230446 L10.2870935,13.0230446 C11.2676456,12.3122851 11.5549138,10.6036873 11.7302388,8.73396642 L11.7302388,6.41927327 C11.7301456,5.87561763 11.1980655,5.43487179 10.5416921,5.43487179 Z" id="Shape-Copy" fill="#2F2F2F"></path>
                    <path d="M10.844909,5.18528266 C10.623679,5.18528266 10.417269,5.23627904 10.2398935,5.32347925 L10.2398935,5.22659013 C10.2398935,4.68293448 9.72473078,4.24222852 9.08932928,4.24222852 C8.79423156,4.24222852 8.52593124,4.33808097 8.32227094,4.49437947 L8.32227094,4.3828573 C8.32227094,3.83920166 7.80715485,3.39845582 7.17170674,3.39845582 C6.80455895,3.39845582 6.47832963,3.54610209 6.2676787,3.77520699 L6.2676787,0.98440148 C6.2676787,0.440745837 5.75256261,2.13162821e-14 5.1171145,2.13162821e-14 C4.4816664,2.13162821e-14 3.9665503,0.440705965 3.9665503,0.98440148 L3.9665503,7.71301227 C3.56775827,7.11596793 2.93426754,6.50668286 2.19116375,6.2436867 C1.99165122,6.17307327 1.78072067,6.11705302 1.56475686,6.11757135 C1.34883966,6.11808969 1.12593182,6.1811673 0.98066657,6.31780888 C0.775188704,6.51114853 0.765262012,6.80998968 0.859682097,7.05851228 C0.954102182,7.30703488 1.13548568,7.52318136 1.28382681,7.75160843 C1.63237954,8.28840608 1.79894291,9.02288944 2.01420765,9.60868986 C2.2294724,10.1944903 2.51180057,10.7859525 3.0317635,11.2092743 C3.2699575,11.4031721 3.5503749,11.5551246 3.79779654,11.7403303 C4.17263402,12.02095 4.46875704,12.3780442 4.65442812,12.7734555 L9.65650225,12.7734555 L10.5903104,12.7734555 C11.5708625,12.062696 11.8581307,10.3540982 12.0334557,8.48437729 L12.0334557,6.16968414 C12.0333624,5.6260285 11.5012824,5.18528266 10.844909,5.18528266 Z" id="Shape" fill="#E4E4E4"></path>
                    <rect id="Rectangle-path" fill="#F42684" x="3.43306138" y="12.5057188" width="8.00571405" height="3.52170038"></rect>
                    <ellipse id="Oval" fill="#1E1E1E" cx="10.0627402" cy="14.2654326" rx="1" ry="1"></ellipse>
                </g>
            </g>
        </g>
    </g>
</svg>