<svg id="Layer_1" data-name="Layer 1" xmlns="http://www.w3.org/2000/svg" viewBox="0 0 40 40"><defs><style>.cls-1,.cls-5{fill:#fff;}.cls-2{fill:#c0bfbf;opacity:0.5;}.cls-3{fill:#4c9ad4;}.cls-3,.cls-5{stroke:#231f20;stroke-width:0.9px;}.cls-3,.cls-4,.cls-5,.cls-6{stroke-linejoin:round;}.cls-4,.cls-6{fill:none;}.cls-4{stroke:#fff;stroke-linecap:round;stroke-width:0.94px;}.cls-6{stroke:#c0bfbf;stroke-width:0.92px;}</style></defs><title>vle Icons_FINAL</title><path class="cls-1" d="M34,3.63H6.45a6,6,0,0,0-5,2.79V6.29a5,5,0,0,1,5-5H34a5,5,0,0,1,5,5V6.41A6,6,0,0,0,34,3.63Z"/><path class="cls-2" d="M38.85,34l0.1-10.86L30,14.22l-19.71,19L16.15,39H33.42A5.39,5.39,0,0,0,38.85,34Z"/><polygon class="cls-3" points="23.92 7.92 29.83 13.83 29.83 32.39 10.47 32.39 10.47 7.9 23.94 7.9 23.92 7.92"/><line class="cls-4" x1="14.21" y1="19.82" x2="25.91" y2="19.82"/><line class="cls-4" x1="14.21" y1="23.01" x2="25.91" y2="23.01"/><line class="cls-4" x1="14.21" y1="26.2" x2="25.91" y2="26.2"/><polygon class="cls-5" points="29.72 13.92 29.7 13.94 23.81 13.94 23.81 8.01 29.72 13.92"/><rect class="cls-6" x="0.9" y="0.73" width="38.54" height="38.54" rx="5.5" ry="5.5"/></svg>