<?xml version="1.0" encoding="UTF-8"?>
<svg width="24px" height="32px" viewBox="0 0 24 32" version="1.1" xmlns="http://www.w3.org/2000/svg" xmlns:xlink="http://www.w3.org/1999/xlink">
    <!-- Generator: Sketch 44.1 (41455) - http://www.bohemiancoding.com/sketch -->
    <title>Spreadsheets</title>
    <desc>Created with Sketch.</desc>
    <defs>
        <path d="M1,11 L15,11 L15,11 C15.5522847,11 16,11.4477153 16,12 L16,19 L16,19 C16,19.5522847 15.5522847,20 15,20 L1,20 L1,20 C0.44771525,20 6.76353751e-17,19.5522847 0,19 L0,12 L-2.22044605e-16,12 C-4.44162819e-17,11.4477153 0.44771525,11 1,11 Z" id="path-1"></path>
    </defs>
    <g id="Page-1" stroke="none" stroke-width="1" fill="none" fill-rule="evenodd">
        <g id="Spreadsheet" transform="translate(-14.000000, -9.000000)">
            <g id="Spreadsheets" transform="translate(15.000000, 9.000000)">
                <g id="Group" fill-rule="nonzero">
                    <path d="M1.87128941,1 C0.87196144,1 -3.55271368e-15,1.96006208 -3.55271368e-15,2.99480902 L0.0543294638,29.1186419 C0.0543294638,30.1533889 0.87196144,31 1.87128941,31 L20.1830401,31 C21.182368,31 22,30.1533889 22,29.1186419 L22,9.01155923 L13.865918,1.02574106 L1.87128941,1 Z" id="Shape" stroke="#2F2F2F" fill="#FFFFFF"></path>
                    <polygon id="Shape" fill="#A1A19F" points="21.4821999 13.9771729 15.1517578 8 21.4821999 8"></polygon>
                    <path d="M15.6832386,9.00358073 L22.6009659,9.00358073 L13.9904116,0.946831597 L13.9904116,6.5922309 C13.9904116,7.62740947 14.6763271,9.00358073 15.6832386,9.00358073 Z" id="Shape" fill="#2F2F2F"></path>
                </g>
                <g id="Group-4" transform="translate(3.000000, 8.000000)">
                    <g id="Rectangle">
                        <use fill="#E4E4E4" fill-rule="evenodd" xlink:href="#path-1"></use>
                        <path stroke="#828282" stroke-width="1" d="M1,11.5 C0.723857625,11.5 0.5,11.7238576 0.5,12 L0.5,19 C0.5,19.2761424 0.723857625,19.5 1,19.5 L15,19.5 C15.2761424,19.5 15.5,19.2761424 15.5,19 L15.5,12 C15.5,11.7238576 15.2761424,11.5 15,11.5 L1,11.5 Z"></path>
                    </g>
                    <g id="Group" transform="translate(8.000000, 4.500000) scale(-1, 1) translate(-8.000000, -4.500000) " fill="#F42684">
                        <rect id="Rectangle-3" x="5.71428571" y="5.03085938" width="4.57142857" height="3.96914062"></rect>
                        <rect id="Rectangle-3-Copy-2" x="0" y="3" width="4.57142857" height="6"></rect>
                        <rect id="Rectangle-3-Copy" x="11.4285714" y="0" width="4.57142857" height="9"></rect>
                    </g>
                    <path d="M8,11.4833518 L8,19" id="Line" stroke="#828282" stroke-linecap="square"></path>
                    <path d="M0.5,15.5 L15.5,15.5" id="Line" stroke="#828282" stroke-linecap="square"></path>
                </g>
            </g>
        </g>
    </g>
</svg>