<?xml version="1.0" encoding="UTF-8"?>
<svg width="62px" height="62px" viewBox="0 0 62 62" version="1.1" xmlns="http://www.w3.org/2000/svg" xmlns:xlink="http://www.w3.org/1999/xlink">
    <!-- Generator: Sketch 44.1 (41455) - http://www.bohemiancoding.com/sketch -->
    <title>Zip Folder</title>
    <desc>Created with Sketch.</desc>
    <defs></defs>
    <g id="Page-1" stroke="none" stroke-width="1" fill="none" fill-rule="evenodd">
        <g id="Zip-Folder">
            <g id="Group" transform="translate(11.000000, 18.000000)">
                <path d="M18.4110862,2.8125 L16.9780573,0.828819688 L16.9780573,0.828819688 C16.6020372,0.308311263 15.9989643,7.702226e-16 15.3568427,8.8817842e-16 L5.98544828,0 C5.44151724,0 5,0.4359375 5,0.97425 L5,20.4799805 C5.03925862,20.4811055 5.64474064,20.930123 5.68286133,20.932373 L7.51977539,20.4799805 L10.0859375,20.2836914 L18.4110862,12.5112305 L18.4110862,5.3125 L18.4110862,2.8125 Z" id="Shape" fill="#A1A19F" fill-rule="nonzero"></path>
                <path d="M5,3 L36,3 L36,3 C37.1045695,3 38,3.8954305 38,5 L38,24 L38,24 C38,25.1045695 37.1045695,26 36,26 L7,26 L7,26 C5.8954305,26 5,25.1045695 5,24 L5,3 Z" id="Rectangle-6" fill="#E4E4E4"></path>
                <g id="Group-Copy" transform="translate(30.000000, 3.000000)" fill-rule="nonzero">
                    <rect id="Rectangle-path" fill="#828282" x="0.821623431" y="0.0622697368" width="1.48860251" height="13.12125"></rect>
                    <path d="M1.56592469,12.0980921 C0.737774059,12.0980921 0.066376569,14.0967434 0.066376569,14.9105921 C0.066376569,15.7244408 0.737774059,16.3842434 1.56592469,16.3842434 C2.39407531,16.3842434 3.0654728,15.7244408 3.0654728,14.9105921 C3.0654728,14.0967434 2.39407531,12.0980921 1.56592469,12.0980921 Z M1.56592469,15.5925987 C1.18262762,15.5925987 0.871832636,15.2872697 0.871832636,14.9104934 C0.871832636,14.5337171 1.1825272,14.2283882 1.56592469,14.2283882 C1.94922176,14.2283882 2.26001674,14.5337171 2.26001674,14.9104934 C2.26001674,15.2872697 1.94922176,15.5925987 1.56592469,15.5925987 Z" id="Shape" fill="#000000"></path>
                </g>
                <path d="M23,20.6041667 C23,21.234375 22.56875,21.75 22.0416667,21.75 L0.958333333,21.75 C0.43125,21.75 0,21.234375 0,20.6041667 L0,9.14583333 C0,8.515625 0.43125,8 0.958333333,8 L22.0416667,8 C22.56875,8 23,8.515625 23,9.14583333 L23,20.6041667 Z" id="Shape" fill="#F42684" fill-rule="nonzero"></path>
                <text id="ZIP" font-family="OpenSans-Bold, Open Sans" font-size="11" font-weight="bold" fill="#FFFFFF">
                    <tspan x="3" y="19">ZIP</tspan>
                </text>
            </g>
            <g id="Group-Copy-2" transform="translate(11.000000, 18.000000)">
                <path d="M18.4110862,2.8125 L16.9780573,0.828819688 L16.9780573,0.828819688 C16.6020372,0.308311263 15.9989643,7.702226e-16 15.3568427,8.8817842e-16 L5.98544828,0 C5.44151724,0 5,0.4359375 5,0.97425 L5,20.4799805 C5.03925862,20.4811055 5.64474064,20.930123 5.68286133,20.932373 L7.51977539,20.4799805 L10.0859375,20.2836914 L18.4110862,12.5112305 L18.4110862,5.3125 L18.4110862,2.8125 Z" id="Shape" fill="#A1A19F" fill-rule="nonzero"></path>
                <path d="M5,3 L36,3 L36,3 C37.1045695,3 38,3.8954305 38,5 L38,24 L38,24 C38,25.1045695 37.1045695,26 36,26 L7,26 L7,26 C5.8954305,26 5,25.1045695 5,24 L5,3 Z" id="Rectangle-6" fill="#E4E4E4"></path>
                <g id="Group-Copy" transform="translate(30.000000, 3.000000)" fill-rule="nonzero">
                    <rect id="Rectangle-path" fill="#828282" x="0.821623431" y="0.0622697368" width="1.48860251" height="13.12125"></rect>
                    <path d="M1.56592469,12.0980921 C0.737774059,12.0980921 0.066376569,14.0967434 0.066376569,14.9105921 C0.066376569,15.7244408 0.737774059,16.3842434 1.56592469,16.3842434 C2.39407531,16.3842434 3.0654728,15.7244408 3.0654728,14.9105921 C3.0654728,14.0967434 2.39407531,12.0980921 1.56592469,12.0980921 Z M1.56592469,15.5925987 C1.18262762,15.5925987 0.871832636,15.2872697 0.871832636,14.9104934 C0.871832636,14.5337171 1.1825272,14.2283882 1.56592469,14.2283882 C1.94922176,14.2283882 2.26001674,14.5337171 2.26001674,14.9104934 C2.26001674,15.2872697 1.94922176,15.5925987 1.56592469,15.5925987 Z" id="Shape" fill="#000000"></path>
                </g>
                <path d="M23,20.6041667 C23,21.234375 22.56875,21.75 22.0416667,21.75 L0.958333333,21.75 C0.43125,21.75 0,21.234375 0,20.6041667 L0,9.14583333 C0,8.515625 0.43125,8 0.958333333,8 L22.0416667,8 C22.56875,8 23,8.515625 23,9.14583333 L23,20.6041667 Z" id="Shape" fill="#F42684" fill-rule="nonzero"></path>
                <text id="ZIP" font-family="OpenSans-Bold, Open Sans" font-size="11" font-weight="bold" fill="#FFFFFF">
                    <tspan x="3" y="19">ZIP</tspan>
                </text>
            </g>
        </g>
    </g>
</svg>