<?xml version="1.0" encoding="UTF-8"?>
<svg width="50px" height="50px" viewBox="0 0 50 50" version="1.1" xmlns="http://www.w3.org/2000/svg" xmlns:xlink="http://www.w3.org/1999/xlink">
    <!-- Generator: Sketch 44.1 (41455) - http://www.bohemiancoding.com/sketch -->
    <title>Discussion Forum</title>
    <desc>Created with Sketch.</desc>
    <defs></defs>
    <g id="Page-1" stroke="none" stroke-width="1" fill="none" fill-rule="evenodd">
        <g id="Discussion-Forum">
            <g id="Group-2" transform="translate(11.000000, 13.000000)">
                <path d="M27.2272466,10.1198625 C27.2272466,4.64210768 21.1871081,0.216576918 13.7310767,0.216576918 C6.27504531,0.216576918 0.23490676,4.65758156 0.23490676,10.1198625 C0.23490676,13.2610609 2.22318179,16.0618339 5.32609586,17.8722783 C4.61814945,20.4564169 3.5336358,21.3848499 2.58468635,22.4834957 C2.358746,22.7620256 2.10268028,22.9941338 2.17799373,23.3809809 C2.25330717,23.767828 2.56962366,24.0154102 2.90100283,23.9844624 C3.48844773,23.907093 4.07589262,23.7987758 4.61814945,23.644037 C7.22399476,22.9631861 9.57377435,21.6943276 11.5469867,19.8993571 C12.2549331,19.9767265 12.9930049,20.0231481 13.7310767,20.0231481 C21.1871081,20.0231481 27.2272466,15.5976174 27.2272466,10.1198625 Z" id="ïµ" fill="#2F2F2F"></path>
                <g id="Group" transform="translate(5.000000, 8.000000)" fill="#FFFFFF">
                    <ellipse id="Oval-5" cx="1.78490444" cy="1.79516251" rx="1.78490444" ry="1.79516251"></ellipse>
                    <ellipse id="Oval-5-Copy" cx="8.78490444" cy="1.79516251" rx="1.78490444" ry="1.79516251"></ellipse>
                    <ellipse id="Oval-5-Copy-2" cx="15.7849044" cy="1.79516251" rx="1.78490444" ry="1.79516251"></ellipse>
                </g>
            </g>
        </g>
    </g>
</svg>