<?xml version="1.0" encoding="UTF-8"?>
<svg width="50px" height="50px" viewBox="0 0 50 50" version="1.1" xmlns="http://www.w3.org/2000/svg" xmlns:xlink="http://www.w3.org/1999/xlink">
    <!-- Generator: Sketch 44.1 (41455) - http://www.bohemiancoding.com/sketch -->
    <title>Audio</title>
    <desc>Created with Sketch.</desc>
    <defs></defs>
    <g id="Page-1" stroke="none" stroke-width="1" fill="none" fill-rule="evenodd">
        <g id="Audio" fill-rule="nonzero">
            <path d="M16.4392182,26.1066343 C15.5642075,26.1066343 14.8447236,26.8315143 14.8447236,27.7130876 L14.8447236,34.5306921 C14.8447236,35.4122654 15.5642075,36.1371454 16.4392182,36.1371454 L21.417168,36.1371454 L21.417168,26.1066343 L16.4392182,26.1066343 Z" id="Shape" fill="#828282" transform="translate(18.130946, 31.121890) rotate(-44.000000) translate(-18.130946, -31.121890) "></path>
            <path d="M19.3429675,31.051521 L25.7530838,37.308377 L25.7530838,37.308377 C26.1483042,37.6941481 26.7814228,37.6864878 27.1671938,37.2912674 C27.3495209,37.1044743 27.451584,36.8537938 27.451584,36.5927672 L27.451584,15.4798093 L27.451584,15.4798093 C27.451584,14.9275245 27.0038688,14.4798093 26.451584,14.4798093 C26.1905587,14.4798093 25.9398793,14.5818714 25.7530864,14.7641969 L19.3429675,21.0210099 L19.3429675,31.051521 Z" id="Shape" fill="#FFFFFF" transform="translate(23.397276, 26.036294) rotate(-44.000000) translate(-23.397276, -26.036294) "></path>
            <path d="M23.2982728,28.6647582 L23.2995948,17.3032616 L23.2995948,17.3032616 C23.2996591,16.7509769 22.851996,16.3032096 22.2997112,16.3031453 C22.0405395,16.3031151 21.7914789,16.4037076 21.6050243,16.5837207 L15.2253636,22.7429819 L15.2428423,28.3043939 L23.2982728,28.6647582 Z" id="Shape" fill-opacity="0.2" fill="#A1A19F" transform="translate(19.262616, 21.806093) rotate(-44.000000) translate(-19.262616, -21.806093) "></path>
            <path d="M16.9969412,25.2449597 L13.4301296,28.6893897 C12.8006995,29.2972232 12.7866901,30.3184537 13.3990824,30.9526045 L18.1349884,35.8567787 C18.7473807,36.4909295 19.768478,36.5125691 20.3979081,35.9047355 L23.9647197,32.4603056 L32.9221488,32.5082703 C33.4744257,32.5112276 33.9245319,32.0659161 33.9274892,31.5136393 C33.9288869,31.2526165 33.8281676,31.001393 33.6468433,30.8136263 L18.9805504,15.6262353 L18.9805504,15.6262353 C18.5969011,15.2289549 17.9638326,15.2179047 17.5665522,15.6015539 C17.3787863,15.7828773 17.2693609,16.0304311 17.2616473,16.2913424 L16.9969412,25.2449597 Z" id="Combined-Shape" stroke="#2F2F2F"></path>
            <g id="Group" transform="translate(33.168908, 17.274562) rotate(-44.000000) translate(-33.168908, -17.274562) translate(29.168908, 9.274562)" fill="#F42684">
                <path d="M3.51184609,15.5344223 C3.28760228,15.5344223 3.06335847,15.4537516 2.88715678,15.2762284 C2.55076745,14.9373161 2.55076745,14.3725258 2.88715678,14.0174794 C4.53693366,12.3553292 5.44997019,10.1282935 5.44997019,7.77223227 C5.44997019,5.41617099 4.5369809,3.20526944 2.88715678,1.52698509 C2.55076745,1.18807283 2.55076745,0.623282531 2.88715678,0.268236129 C3.22354612,-0.070676127 3.78413203,-0.070676127 4.1365354,0.268236129 C6.12270162,2.30156689 7.21189259,4.96427212 7.21189259,7.78836641 C7.21189259,10.6124607 6.12270162,13.2751659 4.1365354,15.2762284 C3.96033371,15.453704 3.7360899,15.5344223 3.51184609,15.5344223 Z" id="Shape"></path>
                <path d="M0.917004605,12.9362537 C0.692760794,12.9362537 0.468516983,12.855583 0.292315294,12.6780598 C-0.0440740416,12.3391475 -0.0440740416,11.7743572 0.292315294,11.4193108 C2.27848151,9.41824833 2.27848151,6.1584369 0.292315294,4.15737444 C-0.0440740416,3.81846218 -0.0440740416,3.25367188 0.292315294,2.89862548 C0.62870463,2.55971322 1.18929054,2.55971322 1.54169392,2.89862548 C4.21660561,5.59359901 4.21660561,9.96690449 1.54169392,12.661878 C1.36549223,12.8394488 1.14124842,12.9362537 0.917004605,12.9362537 Z" id="Shape"></path>
            </g>
        </g>
    </g>
</svg>