<?xml version="1.0" encoding="UTF-8"?>
<svg width="50px" height="50px" viewBox="0 0 50 50" version="1.1" xmlns="http://www.w3.org/2000/svg" xmlns:xlink="http://www.w3.org/1999/xlink">
    <!-- Generator: Sketch 44.1 (41455) - http://www.bohemiancoding.com/sketch -->
    <title>Left Arrow </title>
    <desc>Created with Sketch.</desc>
    <defs></defs>
    <g id="Page-1" stroke="none" stroke-width="1" fill="none" fill-rule="evenodd">
        <g id="Left-Arrow-">
            <g id="Group" transform="translate(14.000000, 14.000000)">
                <circle id="Oval" fill="#2F2F2F" fill-rule="nonzero" cx="11" cy="11" r="11"></circle>
                <path d="M9.24128345,4.04528678 L9.24128345,11.6510225 L6.68251786,11.6510225 C6.55033754,11.6385231 6.42329562,11.7011445 6.3627263,11.8086539 C6.30215697,11.9161633 6.32051571,12.0464525 6.40893915,12.1366195 L10.7958542,17.6185998 C10.8836084,17.7289007 11.0242735,17.7942243 11.1740366,17.7942243 C11.3237997,17.7942243 11.4644647,17.7289007 11.5522189,17.6185998 L15.9326969,12.1424701 C16.0211203,12.052303 16.039479,11.9220139 15.9789097,11.8145045 C15.9183404,11.7069951 15.7912985,11.6443737 15.6591181,11.6568731 L13.1035711,11.6568731 L13.1035711,4.05113734 L9.24128345,4.04528678 Z" id="Path" fill="#FFFFFF" transform="translate(11.170818, 10.919756) scale(-1, 1) rotate(-90.000000) translate(-11.170818, -10.919756) "></path>
            </g>
        </g>
    </g>
</svg>