<svg id="Layer_1" data-name="Layer 1" xmlns="http://www.w3.org/2000/svg" viewBox="0 0 40 40"><defs><style>.cls-1{fill:#fff;}.cls-2{fill:#c0bfbf;opacity:0.5;}.cls-3,.cls-4,.cls-6,.cls-7{fill:none;stroke-linejoin:round;}.cls-3{stroke:#231f20;}.cls-3,.cls-4,.cls-6{stroke-linecap:round;}.cls-3,.cls-6{stroke-width:0.88px;}.cls-4{stroke:#4c9ad4;stroke-width:0.86px;}.cls-5{fill:#4c9ad4;}.cls-6{stroke:#fff;}.cls-7{stroke:#c0bfbf;stroke-width:0.92px;}</style></defs><title>vle Icons_FINAL</title><path class="cls-1" d="M34,3.63H6.45a6,6,0,0,0-5,2.79V6.29a5,5,0,0,1,5-5H34a5,5,0,0,1,5,5V6.41A6,6,0,0,0,34,3.63Z"/><path class="cls-2" d="M31.4,11.86L8.12,30.41l8.4,8.4H33.93a5,5,0,0,0,5-5V19.43Z"/><path class="cls-1" d="M19.13,11.86a1.69,1.69,0,0,1-1.29-.72l-0.44-.71A1.69,1.69,0,0,0,16.1,9.7H9.19a0.85,0.85,0,0,0-.85.85V28.1a0.85,0.85,0,0,0,.85.85h21.4a0.85,0.85,0,0,0,.85-0.85l0-15.39a0.85,0.85,0,0,0-.85-0.85H19.13Z"/><path class="cls-3" d="M19.13,11.86a1.69,1.69,0,0,1-1.29-.72l-0.44-.71A1.69,1.69,0,0,0,16.1,9.7H9.19a0.85,0.85,0,0,0-.85.85V28.1a0.85,0.85,0,0,0,.85.85h21.4a0.85,0.85,0,0,0,.85-0.85l0-15.39a0.85,0.85,0,0,0-.85-0.85H19.13Z"/><rect class="cls-1" x="10.39" y="13.73" width="19.24" height="16.2"/><rect class="cls-4" x="10.39" y="13.73" width="19.24" height="16.2"/><rect class="cls-5" x="8.39" y="15.33" width="23.1" height="15.17" rx="0.92" ry="0.92"/><rect class="cls-3" x="8.39" y="15.33" width="23.1" height="15.17" rx="0.92" ry="0.92"/><line class="cls-6" x1="9.66" y1="28.58" x2="30.01" y2="28.58"/><rect class="cls-7" x="0.9" y="0.73" width="38.54" height="38.54" rx="5.5" ry="5.5"/></svg>