<?xml version="1.0" encoding="UTF-8"?>
<svg width="26px" height="28px" viewBox="0 0 26 28" version="1.1" xmlns="http://www.w3.org/2000/svg" xmlns:xlink="http://www.w3.org/1999/xlink">
    <!-- Generator: Sketch 44.1 (41455) - http://www.bohemiancoding.com/sketch -->
    <title>Learning Outcome</title>
    <desc>Created with Sketch.</desc>
    <defs></defs>
    <g id="Page-1" stroke="none" stroke-width="1" fill="none" fill-rule="evenodd">
        <g id="Learning-Outcome" transform="translate(-12.000000, -11.000000)" fill-rule="nonzero">
            <g transform="translate(12.000000, 11.000000)">
                <path d="M13.0700573,4.74563151 C8.54064174,4.74563151 4.86923702,8.52315419 4.86923702,13.1823098 C4.86923702,16.9202855 7.23466112,20.0850944 10.5073009,21.1929357 L10.5073009,26.3646195 L11.5324035,26.3646195 L11.5324035,27.9464967 L14.6077111,27.9464967 L14.6077111,26.3646195 L15.6328136,26.3646195 L15.6328136,21.1929357 C18.9054534,20.0850944 21.2708775,16.9202855 21.2708775,13.1823098 C21.2708775,8.52315419 17.5994728,4.74563151 13.0700573,4.74563151 Z" id="Shape" fill="#2F2F2F"></path>
                <g id="Group" fill="#2F2F2F">
                    <path d="M13.0700573,0 C12.7866164,0 12.557506,0.235699698 12.557506,0.52729239 L12.557506,2.63646195 C12.557506,2.92805464 12.7866164,3.16375434 13.0700573,3.16375434 C13.3534981,3.16375434 13.5826085,2.92805464 13.5826085,2.63646195 L13.5826085,0.52729239 C13.5826085,0.235699698 13.3534981,0 13.0700573,0 Z" id="Shape"></path>
                    <path d="M25.3712877,12.6550174 L23.3210826,12.6550174 C23.0376417,12.6550174 22.8085313,12.8907171 22.8085313,13.1823098 C22.8085313,13.4739024 23.0376417,13.7096021 23.3210826,13.7096021 L25.3712877,13.7096021 C25.6547285,13.7096021 25.8838389,13.4739024 25.8838389,13.1823098 C25.8838389,12.8907171 25.6547285,12.6550174 25.3712877,12.6550174 Z" id="Shape"></path>
                    <path d="M2.81903196,12.6550174 L0.768826899,12.6550174 C0.485386049,12.6550174 0.256275633,12.8907171 0.256275633,13.1823098 C0.256275633,13.4739024 0.485386049,13.7096021 0.768826899,13.7096021 L2.81903196,13.7096021 C3.10247281,13.7096021 3.33158323,13.4739024 3.33158323,13.1823098 C3.33158323,12.8907171 3.10247281,12.6550174 2.81903196,12.6550174 Z" id="Shape"></path>
                    <path d="M21.4061911,3.86083488 L19.9566961,5.35201776 C19.7562885,5.55818908 19.7562885,5.89143787 19.9566961,6.0976092 C20.0566436,6.20043121 20.1878567,6.25210587 20.3190698,6.25210587 C20.450283,6.25210587 20.5814961,6.20043121 20.6814436,6.0976092 L22.1309386,4.60642632 C22.3313461,4.400255 22.3313461,4.0670062 22.1309386,3.86083488 C21.930531,3.65466356 21.6060861,3.65519085 21.4061911,3.86083488 Z" id="Shape"></path>
                    <path d="M5.45867098,20.2670103 L4.009176,21.7581932 C3.80876846,21.9643645 3.80876846,22.2976133 4.009176,22.5037846 C4.1091235,22.6066066 4.24033662,22.6582813 4.37154975,22.6582813 C4.50276287,22.6582813 4.63397599,22.6066066 4.73392349,22.5037846 L6.18341847,21.0126017 C6.38382601,20.8064304 6.38382601,20.4731816 6.18341847,20.2670103 C5.98301092,20.060839 5.65907852,20.060839 5.45867098,20.2670103 Z" id="Shape"></path>
                    <path d="M20.6814436,20.2670103 C20.481036,20.060839 20.1571036,20.060839 19.9566961,20.2670103 C19.7562885,20.4731816 19.7562885,20.8064304 19.9566961,21.0126017 L21.4061911,22.5037846 C21.5061386,22.6066066 21.6373517,22.6582813 21.7685648,22.6582813 C21.8997779,22.6582813 22.0309911,22.6066066 22.1309386,22.5037846 C22.3313461,22.2976133 22.3313461,21.9643645 22.1309386,21.7581932 L20.6814436,20.2670103 Z" id="Shape"></path>
                    <path d="M4.73392349,3.86083488 C4.53351595,3.65466356 4.20958355,3.65466356 4.009176,3.86083488 C3.80876846,4.0670062 3.80876846,4.400255 4.009176,4.60642632 L5.45867098,6.0976092 C5.55861848,6.20043121 5.6898316,6.25210587 5.82104472,6.25210587 C5.95225785,6.25210587 6.08347097,6.20043121 6.18341847,6.0976092 C6.38382601,5.89143787 6.38382601,5.55818908 6.18341847,5.35201776 L4.73392349,3.86083488 Z" id="Shape"></path>
                </g>
                <path d="M7.43199335,13.7096021 C7.1485525,13.7096021 6.91944209,13.4739024 6.91944209,13.1823098 C6.91944209,9.69321601 9.67850555,6.85480107 13.0700573,6.85480107 C13.3534981,6.85480107 13.5826085,7.09050077 13.5826085,7.38209346 C13.5826085,7.67368615 13.3534981,7.90938585 13.0700573,7.90938585 C10.2438496,7.90938585 7.94454462,10.2748195 7.94454462,13.1823098 C7.94454462,13.4739024 7.7154342,13.7096021 7.43199335,13.7096021 Z" id="Shape" fill="#FFFFFF"></path>
                <polygon id="Shape" fill="#A1A19F" points="10.5073009 22.6735728 10.5073009 26.3646195 11.5324035 26.3646195 11.5324035 27.9464967 14.6077111 27.9464967 14.6077111 26.3646195 15.6328136 26.3646195 15.6328136 22.6735728"></polygon>
            </g>
        </g>
    </g>
</svg>