<?xml version="1.0" encoding="UTF-8"?>
<svg width="28px" height="32px" viewBox="0 0 28 32" version="1.1" xmlns="http://www.w3.org/2000/svg" xmlns:xlink="http://www.w3.org/1999/xlink">
    <!-- Generator: Sketch 44.1 (41455) - http://www.bohemiancoding.com/sketch -->
    <title>PDF</title>
    <desc>Created with Sketch.</desc>
    <defs></defs>
    <g id="Page-1" stroke="none" stroke-width="1" fill="none" fill-rule="evenodd">
        <g id="PDF" transform="translate(-10.000000, -8.000000)">
            <g transform="translate(9.000000, 8.000000)">
                <path d="M7.87128941,1 C6.87196144,1 6,1.96006208 6,2.99480902 L6.05432946,29.1186419 C6.05432946,30.1533889 6.87196144,31 7.87128941,31 L26.1830401,31 C27.182368,31 28,30.1533889 28,29.1186419 L28,9.01155923 L19.865918,1.02574106 L7.87128941,1 Z" id="Shape" stroke="#2F2F2F" fill="#FFFFFF" fill-rule="nonzero"></path>
                <polygon id="Shape" fill="#A1A19F" fill-rule="nonzero" points="27.4821999 13.9771729 21.1517578 8 27.4821999 8"></polygon>
                <path d="M21.6832386,9.00358073 L28.232381,9.00358073 L19.9904116,0.946831597 L19.9904116,6.5922309 C19.9904116,7.62740947 20.6763271,9.00358073 21.6832386,9.00358073 Z" id="Shape" fill="#2F2F2F" fill-rule="nonzero"></path>
                <path d="M24.8916848,24.1362534 C24.8916848,24.6944379 24.8604329,25.6146851 23.7016602,26.0101318 L2.07751903,26.0101318 C1.49015395,26.0101318 1.00958252,25.5534354 1.00958252,24.9952509 L0.998803711,13.0347784 C0.998803711,12.4765939 1.57932391,12.0198975 2.16668899,12.0198975 L23.9129182,12.0198975 C24.5002833,12.0198975 24.9808547,12.4765939 24.9808547,13.0347784 L24.8916848,24.1362534 Z" id="Shape-Copy" fill="#2F2F2F" fill-rule="nonzero"></path>
                <path d="M24.0383955,23.9973261 C24.0383955,24.5555106 23.5578241,25.012207 22.970459,25.012207 L2.06793651,25.012207 C1.48057143,25.012207 1,24.5555106 1,23.9973261 L1,13.0295294 C1,12.4713449 1.48057143,12.0146484 2.06793651,12.0146484 L22.970459,12.0146484 C23.5578241,12.0146484 24.0383955,12.4713449 24.0383955,13.0295294 L24.0383955,23.9973261 Z" id="Shape" fill="#F42684" fill-rule="nonzero"></path>
                <text font-family="OpenSans-Bold, Open Sans" font-size="10" font-weight="bold" fill="#FFFFFF">
                    <tspan x="3" y="22">PDF</tspan>
                </text>
            </g>
        </g>
    </g>
</svg>