<?xml version="1.0" encoding="UTF-8"?>
<svg width="50px" height="50px" viewBox="0 0 50 50" version="1.1" xmlns="http://www.w3.org/2000/svg" xmlns:xlink="http://www.w3.org/1999/xlink">
    <!-- Generator: Sketch 44.1 (41455) - http://www.bohemiancoding.com/sketch -->
    <title>Downloads Folder</title>
    <desc>Created with Sketch.</desc>
    <defs>
        <path d="M0,3 L27.29,3 L27.29,3 C28.2344069,3 29,3.76559308 29,4.71 L29,22.29 L29,22.29 C29,23.2344069 28.2344069,24 27.29,24 L1.71,24 L1.71,24 C0.765593078,24 -3.28432718e-16,23.2344069 -4.4408921e-16,22.29 L0,3 Z" id="path-1"></path>
    </defs>
    <g id="Page-1" stroke="none" stroke-width="1" fill="none" fill-rule="evenodd">
        <g id="Downloads-Folder">
            <g id="Group" transform="translate(11.000000, 13.000000)">
                <path d="M17.3854113,16.6231479 L18.6520699,16.6231479 L18.6520699,18.687432 C18.6520699,19.1149592 18.3118085,19.4615385 17.8920747,19.4615385 L11.3054497,19.4615385 C10.885716,19.4615385 10.5454545,19.1149592 10.5454545,18.687432 L10.5454545,16.6231479 L11.8121132,16.6231479 L11.8121132,18.1713609 L17.3854113,18.1713609 L17.3854113,16.6231479 Z M13.838767,11.0753846 L13.838767,14.4298462 L12.8317734,14.4298462 C12.7797543,14.4243334 12.7297574,14.4519522 12.7059205,14.4993685 C12.6820837,14.5467848 12.6893087,14.604248 12.7241074,14.6440156 L14.4505632,17.0618083 C14.4850985,17.1104558 14.5404568,17.1392664 14.5993956,17.1392664 C14.6583343,17.1392664 14.7136926,17.1104558 14.748228,17.0618083 L16.4721504,14.646596 C16.5069491,14.6068284 16.5141742,14.5493652 16.4903373,14.5019488 C16.4665004,14.4545325 16.4165035,14.4269137 16.3644844,14.4324265 L15.3587574,14.4324265 L15.3587574,11.077965 L13.838767,11.0753846 Z" id="Shape" fill="#F42684" fill-rule="nonzero"></path>
                <path d="M11.7855,3.11831612 L10.4926,0.860309441 L10.4926,0.860309441 C10.1879473,0.328243672 9.62175657,1.44168525e-15 9.00864381,1.55431223e-15 L0.866,0 C0.388,0 4.06413055e-14,0.368870192 4.06413055e-14,0.824365385 L3.90798505e-14,17.3292142 C0.0345,17.3301662 0.566590258,17.7101041 0.600090258,17.712008 L2.21434807,17.3292142 L4.46946023,17.1631235 L11.7855,10.5864258 L11.7855,4.49519231 L11.7855,3.11831612 Z" id="Shape" fill="#2F2F2F" fill-rule="nonzero"></path>
                <g id="Rectangle-6">
                    <use fill="#FFFFFF" fill-rule="evenodd" xlink:href="#path-1"></use>
                    <path stroke="#2F2F2F" stroke-width="1" d="M0.5,3.5 L0.5,22.29 C0.5,22.9582645 1.04173545,23.5 1.71,23.5 L27.29,23.5 C27.9582645,23.5 28.5,22.9582645 28.5,22.29 L28.5,4.71 C28.5,4.04173545 27.9582645,3.5 27.29,3.5 L0.5,3.5 Z"></path>
                </g>
                <path d="M18.96875,14.9384615 L21,14.9384615 L21,17.8923077 C21,18.5040693 20.454347,19 19.78125,19 L9.21875,19 C8.54565296,19 8,18.5040693 8,17.8923077 L8,14.9384615 L10.03125,14.9384615 L10.03125,17.1538462 L18.96875,17.1538462 L18.96875,14.9384615 Z M13.28125,7 L13.28125,11.8 L11.6664062,11.8 C11.5829869,11.7921116 11.5028104,11.8316321 11.4645849,11.8994816 C11.4263595,11.9673311 11.4379457,12.0495569 11.49375,12.1064615 L14.2623437,15.5661538 C14.3177257,15.6357651 14.4064997,15.676991 14.5010156,15.676991 C14.5955315,15.676991 14.6843056,15.6357651 14.7396875,15.5661538 L17.5042187,12.1101538 C17.560023,12.0532492 17.5716093,11.9710234 17.5333838,11.9031739 C17.4951583,11.8353245 17.4149819,11.7958039 17.3315625,11.8036923 L15.71875,11.8036923 L15.71875,7.00369231 L13.28125,7 Z" id="Shape" fill="#F42684" fill-rule="nonzero"></path>
            </g>
        </g>
    </g>
</svg>