<?xml version="1.0" encoding="UTF-8"?>
<svg width="50px" height="50px" viewBox="0 0 50 50" version="1.1" xmlns="http://www.w3.org/2000/svg" xmlns:xlink="http://www.w3.org/1999/xlink">
    <!-- Generator: Sketch 44.1 (41455) - http://www.bohemiancoding.com/sketch -->
    <title>Questionaire</title>
    <desc>Created with Sketch.</desc>
    <defs></defs>
    <g id="Page-1" stroke="none" stroke-width="1" fill="none" fill-rule="evenodd">
        <g id="Questionaire">
            <g id="Group" transform="translate(13.000000, 8.000000)">
                <path d="M2.72623995,3.40322581 C1.70627369,3.40322581 0.816304348,4.37257881 0.816304348,5.41733943 L0.871755833,31.7939836 C0.871755833,32.8387442 1.70627369,33.6935484 2.72623995,33.6935484 L21.4161681,33.6935484 C22.4361343,33.6935484 23.2706522,32.8387442 23.2706522,31.7939836 L23.2706522,11.4923163 L14.9685837,3.42921597 L2.72623995,3.40322581 Z" id="Shape" fill="#828282" fill-rule="nonzero" transform="translate(12.043478, 18.548387) scale(-1, 1) rotate(-180.000000) translate(-12.043478, -18.548387) "></path>
                <path d="M3.70856859,5 C2.79613871,5 2,5.86715284 2,6.80176299 L2.04960516,30.397483 C2.04960516,31.3320932 2.79613871,32.0967742 3.70856859,32.0967742 L20.4279931,32.0967742 C21.340423,32.0967742 22.0869565,31.3320932 22.0869565,30.397483 L22.0869565,12.236247 L14.660186,5.02324999 L3.70856859,5 Z" id="Shape" stroke="#2F2F2F" fill="#FFFFFF" fill-rule="nonzero" transform="translate(12.043478, 18.548387) scale(-1, 1) rotate(-180.000000) translate(-12.043478, -18.548387) "></path>
                <polygon id="Shape" fill="#A1A19F" fill-rule="nonzero" transform="translate(18.724198, 23.074825) scale(-1, 1) rotate(-180.000000) translate(-18.724198, -23.074825) " points="21.6141825 25.7741935 15.8342137 20.3754568 21.6141825 20.3754568"></polygon>
                <path d="M16.3194788,32.1447973 L22.6356645,32.1447973 L14.7738541,24.8677335 L14.7738541,29.9668039 C14.7738541,30.9018039 15.4001247,32.1447973 16.3194788,32.1447973 Z" id="Shape" fill="#2F2F2F" fill-rule="nonzero" transform="translate(18.704759, 28.506265) scale(-1, 1) rotate(-180.000000) translate(-18.704759, -28.506265) "></path>
                <path d="M14.4830582,2.38472419 L14.4830582,1.76520509 C14.4830582,0.789250354 13.5942659,0 12.4952215,0 C11.3961772,0 10.5073849,0.789250354 10.5073849,1.76520509 L10.5073849,2.38472419 L7,2.38472419 L7,6 L18,6 L18,2.38472419 L14.4830582,2.38472419 Z" id="Shape" fill="#F42684" fill-rule="nonzero"></path>
                <rect id="Rectangle-4" fill="#E4E4E4" x="4.13793103" y="9" width="6.52332657" height="6.38095238" rx="1.9494"></rect>
                <polygon id="Shape-Copy" fill="#2F2F2F" fill-rule="nonzero" points="5.92951063 11.5039852 4.96551724 12.4469391 6.78188372 14.2244898 9.85144161 11.2219262 9.15043238 10.5238095 6.80133271 12.4312232"></polygon>
                <rect id="Rectangle-4-Copy" fill="#E4E4E4" x="4.13793103" y="19.6190476" width="6.62068966" height="6.47619048" rx="1.9494"></rect>
                <polygon id="Shape-Copy-2" fill="#2F2F2F" fill-rule="nonzero" points="5.92951063 22.2182709 4.96551724 23.1612248 6.78188372 24.9387755 9.85144161 21.9362119 9.15043238 21.2380952 6.80133271 23.1455089"></polygon>
            </g>
            <g id="Group" transform="translate(24.000000, 7.000000)" fill-rule="nonzero">
                <path d="M15.6312894,1.4718439 C14.0230658,1.4718439 12.7194233,2.6846023 12.7194233,4.18055662 L12.7194233,4.8577348 L18.3245027,4.88167208 L18.3245027,4.2044939 C18.3245027,2.70853958 17.2395131,1.4718439 15.6312894,1.4718439 Z" id="XMLID_958_" fill="#E4E4E4" transform="translate(15.521963, 3.176758) rotate(32.000000) translate(-15.521963, -3.176758) "></path>
                <polygon id="XMLID_959_" fill="#2F2F2F" transform="translate(10.234202, 14.250370) rotate(32.000000) translate(-10.234202, -14.250370) " points="8.7167605 5.44448822 11.6286267 5.44448822 11.7516438 22.9896488 8.97407301 23.0562523"></polygon>
                <polygon id="XMLID_960_" fill="#000000" transform="translate(8.077244, 12.523097) rotate(32.000000) translate(-8.077244, -12.523097) " points="6.62358569 3.38119149 9.62358569 3.38119149 9.62358569 21.6650023 6.53090185 21.6006421"></polygon>
                <polygon id="XMLID_961_" fill="#A1A19F" transform="translate(14.082201, 5.464258) rotate(32.000000) translate(-14.082201, -5.464258) " points="11.2652156 6.491233 13.9873205 6.46881672 16.8991867 6.46881672 16.8991867 4.43728218 11.2866284 4.44653377"></polygon>
                <polygon id="XMLID_962_" fill="#E4E4E4" transform="translate(3.683317, 22.113216) rotate(32.000000) translate(-3.683317, -22.113216) " points="0.753725751 20.7249149 2.69472472 23.539992 4.99469546 23.4498264 6.61290908 20.6864401 3.84806971 20.6946362"></polygon>
                <polygon id="XMLID_963_" fill="#F42684" transform="translate(2.609319, 24.145515) rotate(32.000000) translate(-2.609319, -24.145515) " points="2.71243156 25.1126398 3.74561306 23.1783895 1.47302446 23.2966429"></polygon>
            </g>
        </g>
    </g>
</svg>