<?xml version="1.0" encoding="UTF-8"?>
<svg width="50px" height="50px" viewBox="0 0 50 50" version="1.1" xmlns="http://www.w3.org/2000/svg" xmlns:xlink="http://www.w3.org/1999/xlink">
    <!-- Generator: Sketch 44.1 (41455) - http://www.bohemiancoding.com/sketch -->
    <title>Dashboard</title>
    <desc>Created with Sketch.</desc>
    <defs></defs>
    <g id="Page-1" stroke="none" stroke-width="1" fill="none" fill-rule="evenodd">
        <g id="Dashboard">
            <circle id="Oval" fill="#2F2F2F" fill-rule="nonzero" cx="25" cy="25" r="14.8829151"></circle>
            <circle id="Oval" fill="#E4E4E4" fill-rule="nonzero" cx="24.9941878" cy="24.9941878" r="14.0016373"></circle>
            <circle id="Oval" fill="#FFFFFF" fill-rule="nonzero" cx="24.9941878" cy="24.9941878" r="11.4326362"></circle>
            <path d="M13.544115,24.9941878 C13.544115,28.1444109 14.84024,31.0156474 16.9035779,33.0789854 L17.0430712,32.9394921 L20.6815208,29.3010426 C19.5597624,28.2141575 18.8971693,26.6739193 18.8971693,24.9941878 L13.544115,24.9941878 Z" id="Shape" fill="#E4E4E4" fill-rule="nonzero"></path>
            <path d="M35.8107287,24.9941878 L31.085394,24.9941878 C31.085394,26.6739193 30.422801,28.2141575 29.3010426,29.3010426 L32.9394921,32.9394921 L33.1138587,33.0789854 C35.1481356,31.0156474 36.4442606,28.1444109 36.4442606,24.9941878 L35.8107287,24.9941878 Z" id="Shape" fill="#000000" fill-rule="nonzero"></path>
            <path d="M17.5952321,17.618481 C17.6010443,17.6126688 17.6068565,17.6126688 17.6068565,17.6068565 L16.9093902,16.9093902 L16.9093902,16.9093902 L16.9093902,16.9093902 C14.84024,18.9727282 13.544115,21.8439647 13.544115,24.9941878 L14.1718347,24.9941878 L18.8971693,24.9941878 C18.8971693,23.3144563 19.5597624,21.7742181 20.6815208,20.687333 L17.6010443,17.6068565 C17.6010443,17.6126688 17.5952321,17.618481 17.5952321,17.618481 Z" id="Shape" fill="#D2D2D1" fill-rule="nonzero"></path>
            <path d="M31.6259305,16.9675124 C31.8874804,17.1709401 32.1374058,17.38018 32.3757068,17.6068565 L33.0731732,16.9093902 C31.0156474,14.84024 28.1444109,13.544115 24.9941878,13.544115 L24.9941878,14.7007467 C25.0755589,14.7007467 25.1511177,14.7007467 25.2266766,14.7007467 C25.1511177,14.7007467 25.0697466,14.7007467 24.9941878,14.7007467 L24.9941878,18.9029815 C26.6739193,18.9029815 28.2141575,19.5655746 29.3010426,20.687333 L32.381519,17.6068565 C32.143218,17.3859922 31.8874804,17.1709401 31.6259305,16.9675124 Z" id="Shape" fill="#828282" fill-rule="nonzero"></path>
            <path d="M33.0789854,16.9093902 L32.381519,17.6068565 C32.5093879,17.7231009 32.6314445,17.8451575 32.7535011,17.9672142 C32.6314445,17.8451575 32.5035756,17.7231009 32.381519,17.6068565 L32.381519,17.6068565 L29.3010426,20.687333 C30.422801,21.8090914 31.085394,23.3144563 31.085394,24.9941878 L31.085394,24.9941878 L35.8107287,24.9941878 L36.4442606,24.9941878 C36.4442606,21.8439647 35.1481356,18.9727282 33.0789854,16.9093902 Z" id="Shape" fill="#4C4C4C" fill-rule="nonzero"></path>
            <path d="M24.9941878,14.7007467 L24.9941878,13.544115 C21.8439647,13.544115 18.9727282,14.84024 16.9093902,16.9035779 L16.9093902,16.9035779 L17.6068565,17.6010443 L17.6068565,17.6010443 L20.687333,20.6815208 C21.8090914,19.5597624 23.3144563,18.8971693 24.9941878,18.8971693 L24.9941878,14.7007467 L24.9941878,14.7007467 Z" id="Shape" fill="#A1A19F" fill-rule="nonzero"></path>
            <circle id="Oval-4" stroke="#FFFFFF" cx="25" cy="25" r="11.4606405"></circle>
            <circle id="Oval-2" stroke="#2F2F2F" cx="25" cy="25" r="6"></circle>
            <path d="M24.9941878,16.5548448 C24.9941878,16.5548448 22.4019378,23.0645308 22.4019378,24.9941878 C22.4019378,26.429806 23.5585695,27.5864378 24.9941878,27.5864378 C26.429806,27.5864378 27.5864378,26.429806 27.5864378,24.9941878 C27.5864378,22.9308498 24.9941878,16.5548448 24.9941878,16.5548448 Z M24.9941878,25.9415796 C24.471088,25.9415796 24.046796,25.5230998 24.046796,24.9941878 C24.046796,24.471088 24.4652758,24.046796 24.9941878,24.046796 C25.5172876,24.046796 25.9415796,24.4652758 25.9415796,24.9941878 C25.9415796,25.5172876 25.5172876,25.9415796 24.9941878,25.9415796 Z" id="Shape" fill="#F42684" fill-rule="nonzero"></path>
        </g>
    </g>
</svg>